<?xml version="1.0" encoding="utf-8" ?>
<svg xmlns="http://www.w3.org/2000/svg" xmlns:xlink="http://www.w3.org/1999/xlink" width="1024" height="1024">
	<path fill="#FCF3DD" d="M0 0L1024 0L1024 1024L0 1024L0 0Z"/>
	<path d="M389.096 565.055L388.681 509.331C388.648 500.189 387.773 490.165 389.208 481.17C389.907 476.787 391.47 471.933 394.602 468.695C402.175 460.862 414.878 461.382 424.955 461.477L707.923 461.534L790.61 461.55C802.065 461.56 813.763 460.349 825.164 461.437C830.74 461.969 836.134 463.836 840.075 467.981C842.659 470.699 844.587 474.397 845.284 478.087C847.37 489.135 846 504.921 845.981 516.406L845.986 590.064C851.667 597.477 860.967 604.11 859.669 614.552C858.881 620.893 853.937 632.659 848.771 636.557C848.069 637.088 847.274 637.462 846.493 637.856C846.292 637.957 846.095 638.064 845.894 638.165C845.774 638.226 845.651 638.282 845.529 638.341Q845.403 654.262 845.585 670.183C845.62 674.636 845.158 679.254 845.654 683.668C849.816 696.876 855.44 710.277 857.854 723.935L858.257 726.92C859.283 736.138 862.59 744.652 864.786 753.608C867.757 765.729 870.032 778.11 872.533 790.34Q878.196 819.094 883.026 847.999C885.163 860.409 886.287 874.475 891.024 886.158L885.63 888.309C886.329 891.116 886.852 894.772 888.345 897.238C889.918 896.449 889.477 894.826 891.332 894.659C892.361 895.369 893.128 896.239 894.471 896.02C896.715 895.653 898.322 893.951 900.826 893.859L901.76 894.478C901.727 895.522 901.643 895.61 900.919 896.331C899.479 897.766 897.218 898.816 895.401 899.724C896.636 901.106 897.89 902.473 899.074 903.899C907.507 900.637 919.948 894.627 928.948 898.631C933.161 900.506 935.459 903.938 937.499 907.9Q915.034 917.473 892.907 927.802C885.099 931.388 877.324 935.316 869.346 938.498C864.884 925.76 867.592 921.289 865.773 909.911C864.956 904.799 862.671 900.06 861.626 895.006L854.95 897.04C849.565 884.443 846.624 871.299 842.31 858.36C836.452 840.794 829.382 823.375 824.891 805.399C823.345 814.442 821.807 823.888 817.984 832.29C811.604 846.312 799.476 859.944 790.407 872.505C783.512 882.055 777.359 892.569 769.179 901.077C767.657 899.859 766.329 898.348 764.377 898.095C763.524 898.699 763.014 899.288 762.389 900.124C761.084 902.257 759.073 904.803 758.531 907.239C758.774 907.199 759.016 907.153 759.26 907.118C760.116 906.994 760.866 906.988 761.725 907.02C762.434 907.834 762.407 907.808 762.406 908.891C760.611 910.639 757.352 910.457 755.012 910.495L754.67 911.682C762.875 920.503 771.269 924.018 776.797 935.75L774.736 941.573C777.735 941.547 780.755 941.447 783.752 941.521L910.697 941.52C923.332 941.521 935.979 941.644 948.612 941.502C954.119 941.44 959.788 940.763 965.28 941C967.653 941.103 970.53 941.436 972.5 942.834L972.445 943.444C971.498 944.329 969.978 944.699 968.716 944.826C962.24 945.477 955.218 944.889 948.678 944.871L907.323 944.841L770.31 944.831L329.183 944.725L133.829 944.539L80.6696 944.579C71.8908 944.632 62.9933 945.116 54.2334 944.876C51.9633 944.814 47.2419 944.681 45.5287 943.199C47.2784 941.659 50.8737 941.298 53.2052 941.156C58.7282 940.82 64.4974 941.331 70.0518 941.338L111.977 941.362L240.105 941.511C241.795 929.365 246.064 918.235 250.686 906.968C251.47 907.927 252.225 908.944 253.096 909.825C259.818 908.481 266.787 907.314 273.303 905.165L275.686 902.77C280.333 897.412 288.815 875.871 292.57 868.048Q305.637 840.719 319.508 813.789C307.846 786.13 296.335 758.105 286.139 729.879C284.38 727.518 276.677 726.827 273.661 726.279C255.419 722.964 236.655 718.333 219.846 710.354C224.179 697.669 233.946 680.927 240.347 668.8C247.021 656.155 253.753 641.373 262.144 629.899C266.739 627.294 269.805 620.925 275.048 619.627C280.234 618.342 279.171 625.55 283.744 627.859C283.986 627.981 284.234 628.092 284.479 628.208C287.884 628.787 291.198 630.571 294.69 630.216C296.236 630.059 297.712 629.499 298.607 628.143C299.551 626.713 299.821 624.996 299.538 623.339C299.32 622.064 299.324 621.142 299.447 619.854L300.292 619.616C300.269 621.169 299.963 621.925 300.97 623.151C304.624 624.357 319.565 622.179 325.08 622.509C327.778 622.67 330.664 624.558 333.223 624.277C339.936 623.541 347.594 621.542 353.633 618.488C371.131 609.64 374.148 578.742 389.096 565.055Z"/>
	<path fill="#FCF3DD" d="M411.942 482.014Q552.54 480.958 693.138 481.99L767.239 481.921C781.002 481.81 794.71 481.125 808.48 481.699C812.65 481.873 817.187 481.919 820.774 484.299C823.288 489.934 822.198 552.876 821.727 563.369C816.87 557.287 810.476 546.916 802.991 544.201C799.825 543.053 795.736 542.719 792.639 544.271C791.204 544.991 790.316 545.999 789.869 547.566C787.595 555.53 801.86 563.84 806.212 568.868C807.759 570.655 808.801 572.907 809.866 575.002C806.249 575.964 802.789 576.995 799.322 578.412C798.029 580.093 796.842 581.866 795.62 583.6C791.975 583.402 785.854 583.215 783.055 585.996C779.586 589.442 785.927 595.548 786.809 598.927C787.09 600.003 786.952 601.441 786.906 602.553L786.868 603.313C788.815 604.528 790.899 605.476 792.963 606.474C795.443 610.255 798.297 614.222 797.527 619.025C797.262 620.677 796.49 622.093 795.05 622.997C792.63 624.518 789.291 624.367 786.614 623.821C783.875 621.698 778.91 620.128 775.452 620.618C771.516 621.176 767.76 623.314 765.436 626.553C759.809 634.392 761.239 647.591 762.962 656.456Q763.389 658.694 764.015 660.884Q749.204 660.383 734.389 660.771C733.939 657.981 733.878 655.361 731.402 653.549C728.807 651.649 725.55 651.313 722.455 651.882C720.893 652.17 718.044 652.971 717.177 654.441C716.325 655.885 716.471 658.925 716.433 660.597C709.722 660.302 696.502 658.278 691.136 663.127C690.529 663.676 690.03 664.307 689.525 664.949L689.534 678.624C689.522 682.543 689.598 686.483 689.481 690.398C689.65 697.103 689.088 703.806 689.138 710.514Q689.512 724.984 689.231 739.456L502.312 739.123L449.95 739.044C437.836 739.066 425.278 739.803 413.275 738.07C411.795 736.234 412.15 732.383 412.074 730.105C411.779 721.149 412.082 712.126 412.082 703.163L412.047 649.096L411.942 482.014Z"/>
	<path fill="#E3594E" d="M689.481 690.398C689.65 697.103 689.088 703.806 689.138 710.514L592.51 710.421L592.513 696.03L688.993 696.125C689.089 694.204 689.272 692.31 689.481 690.398Z"/>
	<path fill="#E3594E" d="M592.447 664.945C624.756 664.991 657.24 665.798 689.525 664.949L689.534 678.624C678.548 678.171 667.436 678.411 656.441 678.434Q624.471 678.517 592.503 678.987L592.447 664.945Z"/>
	<path d="M591.48 523.561C599.387 527.406 606.431 533.745 613.678 538.708L667.124 575.007L636.645 595.276Q614.206 610.367 591.516 625.077C590.826 606.141 591.241 587.28 591.189 568.341C591.148 553.434 590.317 538.439 591.48 523.561Z"/>
	<path fill="#E3594E" d="M594.45 528.673C616.174 545.234 640.056 558.908 661.959 575.197Q648.399 583.927 634.935 592.803C621.55 602.019 607.886 610.846 594.422 619.951C594.401 589.513 594.081 559.112 594.45 528.673Z"/>
	<path fill="#E3594E" d="M474.557 665.045L574.503 665.019L574.51 678.999L474.557 679.009L474.557 665.045Z"/>
	<path fill="#E3594E" d="M474.601 696.027L574.427 696.112L574.249 710.064C541.072 709.286 507.777 709.971 474.584 710.071C474.48 705.394 474.574 700.705 474.601 696.027Z"/>
	<path fill="#FCF3DD" d="M286.139 729.879C287.36 729.227 288.141 728.999 288.843 727.722C293.164 719.86 292.911 689.496 296.607 677.844C301.533 682.882 306.402 687.941 311.967 692.29C328.396 705.13 368.318 729.656 388.531 733.285C388.436 741.994 390.139 749.509 396.387 755.955C404.833 764.669 415.923 764.788 427.291 764.871L543.96 764.837C558.839 764.895 573.803 764.312 588.664 765.024L577.943 803.48Q541.533 802.887 505.124 803.526L494.541 813.26L494.187 820.258C528.843 821.04 563.565 820.174 598.231 820.232C640.01 820.302 681.908 821.176 723.669 819.945C720.164 813.804 717.008 807.982 711.307 803.552C689.613 802.003 667.699 803.058 645.959 803.004C641.96 790.509 637.791 778.022 634.646 765.277L689.111 764.987C688.584 771.283 688.252 776.986 689.59 783.226C705.039 785.271 720.881 783.945 736.419 783.937C745.652 783.933 754.946 784.905 764.16 784.127C767.119 783.877 769.858 783.378 772.495 781.95C773.965 779.538 774.482 776.834 774.741 774.044C775.639 764.357 774.892 754.257 774.773 744.521Q774.461 718.685 774.543 692.849C775.73 694.644 777.854 697.146 778.329 699.232C779.679 705.158 779.292 712.058 779.665 718.135C780.197 726.786 781.137 735.443 781.456 744.102C781.832 754.338 781.577 764.685 781.56 774.931C781.542 785.413 781.815 796.278 779.712 806.599C775.614 826.703 762.397 844.159 751.946 861.461C749.814 864.989 746.04 869.777 744.818 873.564L741.31 877.581L745.195 881.43C743.8 883.364 742.184 885.309 741.039 887.397L741.673 888.2C742.503 887.483 743.223 886.843 744.227 886.382C744.466 886.273 744.707 886.17 744.947 886.063C745.99 885.183 746.932 884.327 747.856 883.325C752.584 887.018 757.54 890.905 761.664 895.272C761.784 896.565 761.293 897.414 760.756 898.543L762.389 900.124C761.084 902.257 759.073 904.803 758.531 907.239C758.774 907.199 759.016 907.153 759.26 907.118C760.116 906.994 760.866 906.988 761.725 907.02C762.434 907.834 762.407 907.808 762.406 908.891C760.611 910.639 757.352 910.457 755.012 910.495L754.67 911.682C762.875 920.503 771.269 924.018 776.797 935.75L774.736 941.573C777.735 941.547 780.755 941.447 783.752 941.521L910.697 941.52C923.332 941.521 935.979 941.644 948.612 941.502C954.119 941.44 959.788 940.763 965.28 941C967.653 941.103 970.53 941.436 972.5 942.834L972.445 943.444C971.498 944.329 969.978 944.699 968.716 944.826C962.24 945.477 955.218 944.889 948.678 944.871L907.323 944.841L770.31 944.831L329.183 944.725L133.829 944.539L80.6696 944.579C71.8908 944.632 62.9933 945.116 54.2334 944.876C51.9633 944.814 47.2419 944.681 45.5287 943.199C47.2784 941.659 50.8737 941.298 53.2052 941.156C58.7282 940.82 64.4974 941.331 70.0518 941.338L111.977 941.362L240.105 941.511C241.795 929.365 246.064 918.235 250.686 906.968C251.47 907.927 252.225 908.944 253.096 909.825C259.818 908.481 266.787 907.314 273.303 905.165L275.686 902.77C280.333 897.412 288.815 875.871 292.57 868.048Q305.637 840.719 319.508 813.789C307.846 786.13 296.335 758.105 286.139 729.879Z"/>
	<path d="M275.686 902.77C289.708 908.736 320.35 915.652 326.027 930.598C327.4 934.214 327.442 937.777 327.007 941.567L623.479 941.699L717.19 941.718C732.828 941.712 749.071 940.685 764.638 941.932C771.422 942.86 777.069 943.259 783.752 941.521L910.697 941.52C923.332 941.521 935.979 941.644 948.612 941.502C954.119 941.44 959.788 940.763 965.28 941C967.653 941.103 970.53 941.436 972.5 942.834L972.445 943.444C971.498 944.329 969.978 944.699 968.716 944.826C962.24 945.477 955.218 944.889 948.678 944.871L907.323 944.841L770.31 944.831L329.183 944.725L133.829 944.539L80.6696 944.579C71.8908 944.632 62.9933 945.116 54.2334 944.876C51.9633 944.814 47.2419 944.681 45.5287 943.199C47.2784 941.659 50.8737 941.298 53.2052 941.156C58.7282 940.82 64.4974 941.331 70.0518 941.338L111.977 941.362L240.105 941.511C241.795 929.365 246.064 918.235 250.686 906.968C251.47 907.927 252.225 908.944 253.096 909.825C259.818 908.481 266.787 907.314 273.303 905.165L275.686 902.77Z"/>
	<path fill="#FCF3DD" d="M273.303 905.165C276.996 906.39 280.526 907.665 284.028 909.367C281.883 916.914 278.94 924.311 277.109 931.922C266.423 931.931 255.726 932.083 245.051 931.528C246.905 924.271 248.453 915.882 253.096 909.825C259.818 908.481 266.787 907.314 273.303 905.165Z"/>
	<path fill="#E3594E" d="M243.975 934.515C270.959 934.351 298.021 933.894 324.99 934.884C325.068 937.125 325.017 939.272 324.813 941.504Q283.791 941.822 242.767 941.562L243.975 934.515Z"/>
	<path fill="#FCF3DD" d="M298.791 914.789C305.233 917.291 312.328 919.608 317.862 923.838C320.506 925.858 322.338 927.952 322.769 931.313C321.58 932.154 320.547 931.897 319.125 931.92L293.502 931.995C295.135 926.211 296.729 920.439 298.791 914.789Z"/>
	<path fill="#FEA26D" d="M286.325 909.982L290.801 912.046C288.803 918.808 286.764 925.409 283.737 931.804C282.418 931.872 281.987 932.161 280.894 931.305C279.595 926.701 285.186 915.771 286.209 910.606C286.251 910.399 286.286 910.19 286.325 909.982Z"/>
	<path fill="#FEA26D" d="M293.212 912.313C294.253 912.809 294.679 913.1 295.304 914.076C295.68 920.044 291.994 927.213 289.997 932.817C289.005 932.448 288.242 932.072 287.373 931.465C287.067 928.969 292.147 915.665 293.212 912.313Z"/>
	<path fill="#20171D" d="M744.947 886.063C745.99 885.183 746.932 884.327 747.856 883.325C752.584 887.018 757.54 890.905 761.664 895.272C761.784 896.565 761.293 897.414 760.756 898.543L762.389 900.124C761.084 902.257 759.073 904.803 758.531 907.239C758.774 907.199 759.016 907.153 759.26 907.118C760.116 906.994 760.866 906.988 761.725 907.02C762.434 907.834 762.407 907.808 762.406 908.891C760.611 910.639 757.352 910.457 755.012 910.495L754.67 911.682C762.875 920.503 771.269 924.018 776.797 935.75L774.736 941.573C777.735 941.547 780.755 941.447 783.752 941.521C777.069 943.259 771.422 942.86 764.638 941.932C759.119 936.659 750.47 932.728 743.939 928.697C735.121 923.253 726.484 917.482 717.765 911.879C722.044 903.413 725.741 897.187 734.602 892.94C736.996 891.297 738.98 889.425 741.039 887.397L741.673 888.2C742.503 887.483 743.223 886.843 744.227 886.382C744.466 886.273 744.707 886.17 744.947 886.063Z"/>
	<path fill="#FCF3DD" d="M744.947 886.063C745.99 885.183 746.932 884.327 747.856 883.325C752.584 887.018 757.54 890.905 761.664 895.272C761.784 896.565 761.293 897.414 760.756 898.543L762.389 900.124C761.084 902.257 759.073 904.803 758.531 907.239C758.774 907.199 759.016 907.153 759.26 907.118C760.116 906.994 760.866 906.988 761.725 907.02C762.434 907.834 762.407 907.808 762.406 908.891C760.611 910.639 757.352 910.457 755.012 910.495C753.524 907.498 751.191 905.403 748.822 903.108C748.563 904.826 748.533 906.169 747.227 907.383C746.269 907.555 745.712 907.592 744.755 907.305C741.922 906.456 737.349 901.62 736.243 898.952C735.759 897.782 735.701 897.617 736.198 896.528C735.46 895.439 735.066 894.163 734.602 892.94C736.996 891.297 738.98 889.425 741.039 887.397L741.673 888.2C742.503 887.483 743.223 886.843 744.227 886.382C744.466 886.273 744.707 886.17 744.947 886.063Z"/>
	<path d="M753.609 902.522C755.42 899.365 757.397 896.688 759.817 893.976C758.292 898.43 756.167 902.606 754.108 906.83C756.538 904.171 758.691 901.495 760.756 898.543L762.389 900.124C761.084 902.257 759.073 904.803 758.531 907.239C758.774 907.199 759.016 907.153 759.26 907.118C760.116 906.994 760.866 906.988 761.725 907.02C762.434 907.834 762.407 907.808 762.406 908.891C760.611 910.639 757.352 910.457 755.012 910.495C753.524 907.498 751.191 905.403 748.822 903.108C749.183 902.335 749.584 901.641 750.02 900.911C751.527 900.644 752.374 901.692 753.609 902.522Z"/>
	<path d="M741.039 887.397L741.673 888.2C742.503 887.483 743.223 886.843 744.227 886.382C744.466 886.273 744.707 886.17 744.947 886.063C742.071 889.582 739.041 892.986 736.198 896.528C735.46 895.439 735.066 894.163 734.602 892.94C736.996 891.297 738.98 889.425 741.039 887.397Z"/>
	<path fill="#A1C5A2" d="M856.183 726.713L855.246 727.38L855.333 727.076L857.11 726.186L857.238 726.617L858.257 726.92C859.283 736.138 862.59 744.652 864.786 753.608C867.757 765.729 870.032 778.11 872.533 790.34Q878.196 819.094 883.026 847.999C885.163 860.409 886.287 874.475 891.024 886.158L885.63 888.309C886.329 891.116 886.852 894.772 888.345 897.238C889.918 896.449 889.477 894.826 891.332 894.659C892.361 895.369 893.128 896.239 894.471 896.02C896.715 895.653 898.322 893.951 900.826 893.859L901.76 894.478C901.727 895.522 901.643 895.61 900.919 896.331C899.479 897.766 897.218 898.816 895.401 899.724C896.636 901.106 897.89 902.473 899.074 903.899C907.507 900.637 919.948 894.627 928.948 898.631C933.161 900.506 935.459 903.938 937.499 907.9Q915.034 917.473 892.907 927.802C885.099 931.388 877.324 935.316 869.346 938.498C864.884 925.76 867.592 921.289 865.773 909.911C864.956 904.799 862.671 900.06 861.626 895.006L854.95 897.04C849.565 884.443 846.624 871.299 842.31 858.36C836.452 840.794 829.382 823.375 824.891 805.399C823.345 814.442 821.807 823.888 817.984 832.29C811.604 846.312 799.476 859.944 790.407 872.505C783.512 882.055 777.359 892.569 769.179 901.077C767.657 899.859 766.329 898.348 764.377 898.095C763.524 898.699 763.014 899.288 762.389 900.124L760.756 898.543C761.293 897.414 761.784 896.565 761.664 895.272C757.54 890.905 752.584 887.018 747.856 883.325C746.932 884.327 745.99 885.183 744.947 886.063C744.707 886.17 744.466 886.273 744.227 886.382C743.223 886.843 742.503 887.483 741.673 888.2L741.039 887.397C742.184 885.309 743.8 883.364 745.195 881.43L741.31 877.581L744.818 873.564L745.878 873.405L747.728 870.807C747.505 871.933 747.115 872.514 746.435 873.428L746.766 874.468C748.965 872.736 758.428 855.619 760.469 852.288C765.713 843.731 771.643 835.099 776.04 826.074C784.93 807.829 784.654 786.318 784.267 766.453C784.199 762.959 783.124 752.806 784.323 749.821C784.632 749.052 785.851 750.271 786.478 750.41C787.368 750.608 788.746 750.09 789.59 749.85C794.293 748.514 798.947 746.941 803.612 745.475Q829.546 737.309 855.246 728.433Q857.094 735.515 859.069 742.562C859.938 738.057 857.045 731.361 856.183 726.713Z"/>
	<defs>
		<linearGradient id="gradient_0" gradientUnits="userSpaceOnUse" x1="788.20105" y1="796.06647" x2="919.76184" y2="923.27643">
			<stop offset="0" stop-color="black"/>
			<stop offset="1" stop-color="#1F1721"/>
		</linearGradient>
	</defs>
	<path fill="url(#gradient_0)" d="M856.183 726.713L855.246 727.38L855.333 727.076L857.11 726.186L857.238 726.617L858.257 726.92C859.283 736.138 862.59 744.652 864.786 753.608C867.757 765.729 870.032 778.11 872.533 790.34Q878.196 819.094 883.026 847.999C885.163 860.409 886.287 874.475 891.024 886.158L885.63 888.309C886.329 891.116 886.852 894.772 888.345 897.238C889.918 896.449 889.477 894.826 891.332 894.659C892.361 895.369 893.128 896.239 894.471 896.02C896.715 895.653 898.322 893.951 900.826 893.859L901.76 894.478C901.727 895.522 901.643 895.61 900.919 896.331C899.479 897.766 897.218 898.816 895.401 899.724C896.636 901.106 897.89 902.473 899.074 903.899C907.507 900.637 919.948 894.627 928.948 898.631C933.161 900.506 935.459 903.938 937.499 907.9Q915.034 917.473 892.907 927.802C885.099 931.388 877.324 935.316 869.346 938.498C864.884 925.76 867.592 921.289 865.773 909.911C864.956 904.799 862.671 900.06 861.626 895.006L854.95 897.04C849.565 884.443 846.624 871.299 842.31 858.36C836.452 840.794 829.382 823.375 824.891 805.399C823.345 814.442 821.807 823.888 817.984 832.29C811.604 846.312 799.476 859.944 790.407 872.505C783.512 882.055 777.359 892.569 769.179 901.077C767.657 899.859 766.329 898.348 764.377 898.095C763.524 898.699 763.014 899.288 762.389 900.124L760.756 898.543C761.293 897.414 761.784 896.565 761.664 895.272C757.54 890.905 752.584 887.018 747.856 883.325C746.932 884.327 745.99 885.183 744.947 886.063C744.707 886.17 744.466 886.273 744.227 886.382C743.223 886.843 742.503 887.483 741.673 888.2L741.039 887.397C742.184 885.309 743.8 883.364 745.195 881.43L741.31 877.581L744.818 873.564L745.878 873.405L747.728 870.807C747.505 871.933 747.115 872.514 746.435 873.428L746.766 874.468C746.203 875.673 745.895 876.537 745.723 877.881C753.799 883.924 761.382 890.35 769.084 896.852C777.992 885.386 786.37 873.552 794.854 861.774C802.169 851.618 810.621 841.741 815.598 830.18C817.612 825.499 819.26 820.499 820.281 815.503C823.631 799.104 824.308 762.378 837.595 751.276C839.392 749.775 840.897 749.305 843.201 749.49C842.513 753.165 835.126 757.828 833.132 762.016C829.385 769.884 825.661 791.072 826.478 799.754C827.548 811.136 834.825 826.969 838.592 838.252C844.725 856.621 850.003 875.188 856.664 893.39Q871.744 889.129 886.767 884.674C884.787 871.588 882.132 858.554 879.799 845.525Q873.939 811.917 867.14 778.486C864.611 766.477 861.512 754.586 859.069 742.562C859.938 738.057 857.045 731.361 856.183 726.713Z"/>
	<path fill="#FCF3DD" d="M880.655 889.619C881.627 889.45 882.108 889.403 883.034 889.767C886.827 893.964 882.72 898.262 883.306 900.272C884.003 902.664 889.002 905.183 889.096 907.968C885.232 910.486 880.266 912.16 875.826 913.382C874.424 913.182 872.886 913.006 871.693 912.183C866.752 908.777 865.623 899.864 864.367 894.328Q872.306 891.264 880.655 889.619Z"/>
	<path fill="#FCF3DD" d="M895.066 901.211C896.153 902.111 896.541 902.064 896.808 903.506C895.447 905.096 892.396 905.847 890.495 906.861L889.939 907.042C889.574 905.793 889.17 904.616 889.167 903.3L890.206 902.588C891.658 902.541 893.055 902.585 894.308 901.75C894.566 901.578 894.814 901.39 895.066 901.211Z"/>
	<path fill="#20171D" d="M800.568 612.824C803.853 613.413 806.863 614.219 810.014 615.314C811.37 617.682 812.439 620.223 813.578 622.702C814.317 621.67 814.829 620.66 815.378 619.523C817.85 619.807 820.12 620.809 822.523 621.39C823.528 624.171 825.414 626.452 826.338 629.246C830.306 641.255 834.039 653.501 837.741 665.602C839.266 670.586 840.336 676.834 842.744 681.436C843.264 682.431 843.823 682.864 844.811 683.311C845.089 683.436 845.373 683.549 845.654 683.668C849.816 696.876 855.44 710.277 857.854 723.935C857.194 724.545 856.532 725.146 855.892 725.776C855.039 726.616 854.26 727.303 853.103 727.717C849.798 728.903 846.172 729.617 842.787 730.583Q832.558 733.557 822.36 736.639C814.368 739.051 794.646 746.633 787.367 747.04C786.25 746.213 786.094 744.885 785.743 743.612L785.199 743.22Q789.863 740.714 794.771 738.725Q799.679 736.736 804.772 735.288L807.765 733.54C790.242 716.202 770.034 685.418 767.047 660.918C765.616 664.184 767.66 669.622 768.177 673.178C768.199 673.325 768.217 673.472 768.237 673.62C768.083 670.594 765.113 663.808 764.284 660.328L764.015 660.884Q763.389 658.694 762.962 656.456C761.239 647.591 759.809 634.392 765.436 626.553C767.76 623.314 771.516 621.176 775.452 620.618C778.91 620.128 783.875 621.698 786.614 623.821L786.389 624.525C787.508 625.95 790.636 627.469 792.492 627.623C792.704 627.64 792.915 627.573 793.127 627.548C798.985 622.715 799.848 620.246 800.568 612.824Z"/>
	<path fill="#FCF3DD" d="M767.047 660.918C767.201 658.614 767.441 655.298 769.615 653.839C770.682 653.122 771.453 653.012 772.706 653.253C776.003 653.888 779.712 658.919 781.098 661.741C789.459 678.764 795.999 692.663 806.232 708.884C808.585 712.613 818.679 726.919 818.144 730.589C816.006 732.754 811.584 733.493 808.647 733.541C808.353 733.546 808.059 733.54 807.765 733.54C790.242 716.202 770.034 685.418 767.047 660.918Z"/>
	<path fill="#FCF3DD" d="M800.568 612.824C803.853 613.413 806.863 614.219 810.014 615.314C811.37 617.682 812.439 620.223 813.578 622.702C813.561 627.069 813.975 632.613 810.492 635.93C809.25 637.114 807.661 637.64 805.955 637.538C801.175 637.253 797.259 632.729 794.448 629.244Q793.774 628.406 793.127 627.548C798.985 622.715 799.848 620.246 800.568 612.824Z"/>
	<path fill="#E3594E" d="M262.144 629.899C266.739 627.294 269.805 620.925 275.048 619.627C280.234 618.342 279.171 625.55 283.744 627.859C283.986 627.981 284.234 628.092 284.479 628.208C287.323 630.159 291.206 631.727 294.712 631.075C296.572 630.728 298.526 629.797 299.593 628.177C300.139 627.348 300.569 626.405 300.957 625.495C310.148 625.665 319.205 625.079 328.375 624.925C328.932 630.344 328.306 650.369 330.021 653.438C329.844 654.614 329.684 655.588 328.706 656.388C326.057 658.552 320.185 658.394 316.924 658.661C315.859 658.706 315.116 658.715 314.09 659.017C308.404 659.405 302.993 660.676 297.475 662.02C297.376 665.557 297.268 669.025 296.756 672.53C296.201 674.388 295.628 676.019 296.607 677.844C292.911 689.496 293.164 719.86 288.843 727.722C288.141 728.999 287.36 729.227 286.139 729.879C284.38 727.518 276.677 726.827 273.661 726.279C255.419 722.964 236.655 718.333 219.846 710.354C224.179 697.669 233.946 680.927 240.347 668.8C247.021 656.155 253.753 641.373 262.144 629.899Z"/>
	<path fill="#FCF3DD" d="M389.351 597.702C389.826 637.009 389.677 676.413 389.396 715.723C362.439 704.028 334.535 682.239 316.924 658.661C320.185 658.394 326.057 658.552 328.706 656.388C329.684 655.588 329.844 654.614 330.021 653.438C330.191 653.371 330.36 653.302 330.53 653.238C335.466 651.378 341.12 651.065 346.319 650.261C361.478 647.919 373.444 642.198 380.102 627.814C384.466 618.386 386.761 607.729 389.351 597.702Z"/>
	<path fill="#FCF3DD" d="M297.475 662.02C302.993 660.676 308.404 659.405 314.09 659.017C330.815 682.821 371.695 716.781 400.458 721.822Q402.06 722.101 403.667 722.355C400.044 726.528 396.795 729.386 390.975 729.712C387.724 729.894 384.246 729.483 381.135 728.504C373.59 726.129 366.483 721.852 359.524 718.136C341.453 708.485 321.765 698.26 306.61 684.267C302.762 680.714 299.586 676.933 296.756 672.53C297.268 669.025 297.376 665.557 297.475 662.02Z"/>
	<defs>
		<linearGradient id="gradient_1" gradientUnits="userSpaceOnUse" x1="778.09045" y1="722.57715" x2="803.81378" y2="729.85889">
			<stop offset="0" stop-color="#FF8869"/>
			<stop offset="1" stop-color="#F9A872"/>
		</linearGradient>
	</defs>
	<path fill="url(#gradient_1)" d="M781.507 703.403C788.783 714.41 797.469 724.336 804.772 735.288Q799.679 736.736 794.771 738.725Q789.864 740.714 785.199 743.22C782.171 737.455 781.679 711.295 781.507 703.403Z"/>
	<path fill="#FCC272" d="M812.45 613.491C816.328 611.768 819.339 609.934 822.476 607.001C822.526 611.633 823.088 616.832 822.523 621.39C820.12 620.809 817.85 619.807 815.378 619.523C814.37 617.531 813.304 615.555 812.45 613.491Z"/>
	<path fill="#FCC272" d="M413.141 464.699C427.868 463.622 443.177 464.888 457.962 464.904L557.362 464.86L732.872 464.727Q775.188 464.233 817.505 464.443C825.188 464.551 833.178 464.642 838.753 470.884C841.206 473.63 842.298 479.179 842.719 482.794C843.955 493.42 842.97 504.728 843 515.445Q843.388 550.903 842.588 586.354C836.496 580.76 829.813 573.649 825.236 566.76L825.127 518.674C825.178 509.169 825.969 499.244 825.07 489.797C824.836 487.346 824.333 482.905 822.551 481.141C820.388 478.999 816.649 478.889 813.81 478.772C789.79 477.785 765.645 478.746 741.612 478.805L617.931 478.783L483.39 478.911C458.574 478.909 433.879 478.129 409.063 479.096Q408.57 508.611 409.113 538.125L409.487 672.582C409.487 684.68 409.607 696.795 409.429 708.891C409.329 715.661 408.849 722.453 409.043 729.223C409.115 731.738 408.952 738.056 410.741 739.863C412.288 741.425 414.892 741.566 416.956 741.716C431.119 742.746 445.311 742.246 459.494 742.124Q479.364 742.101 499.232 742.331L689.096 742.492L689.063 761.522Q596.043 762.108 503.023 761.45L446.998 761.51C436.118 761.551 424.903 762.347 414.082 761.118C408.248 760.455 404.089 758.985 399.677 754.928C393.131 748.91 391.553 741.408 391.333 732.923C396.063 731.987 404.512 728.456 406.937 723.863C407.639 722.532 407.505 722.193 407.146 720.831C404.136 717.555 396.674 717.663 392.455 717.12C391.676 699.485 391.847 681.731 391.849 664.08L392.104 575.916L391.99 515.802C391.943 505.464 391.242 494.955 392.013 484.646C392.388 479.629 392.808 474.947 396.274 471.017C400.683 466.019 406.909 465.255 413.141 464.699Z"/>
	<path fill="#A1C5A2" d="M695.302 663.082C707.336 662.662 719.521 663.655 731.575 663.757C742.419 663.848 753.284 662.952 764.124 663.444C766.533 671.945 771.202 680.683 772.337 689.363C772.941 693.982 772.867 775.262 772.351 777.326C771.883 779.194 771.042 779.876 769.47 780.76C759.831 781.71 749.698 780.763 740.002 780.724C723.973 780.66 708.038 781.047 692.002 780.47C691.279 771.923 691.775 763.315 691.86 754.751L692.055 717.724C692.131 701.848 690.703 685.707 691.968 669.883C692.239 666.494 692.712 665.288 695.302 663.082Z"/>
	<path d="M701.986 670.701C712.633 670.501 755.735 668.735 762.888 672.02C763.875 672.474 763.894 672.788 764.263 673.759C765.214 676.258 765.498 679.316 765.665 681.979C766.273 691.672 767.012 767.437 765.022 771.321C764.257 772.814 761.331 773.682 759.852 774.198C749.934 774.655 706.267 775.771 699.616 772.913C698.94 772.622 698.435 772.424 698.138 771.755C696.865 768.898 696.433 765.725 696.247 762.623C695.436 749.057 696.41 735.17 696.462 721.573C696.517 706.935 695.789 692.313 696.374 677.676C696.429 676.299 696.465 674.586 697.123 673.331C698.076 671.514 700.183 671.135 701.986 670.701Z"/>
	<path fill="#FCF3DD" d="M708.841 673.723C716.029 673.447 723.272 673.769 730.468 673.742C738.93 673.709 753.514 672.1 761.314 674.636C762.166 675.571 762.267 676.96 762.485 678.17C764.232 687.88 763.04 707.198 763.058 718.014L763.12 749.306C763.131 754.855 763.425 760.588 763.04 766.12C762.948 767.43 762.776 768.749 761.846 769.77C760.151 771.633 756.671 771.185 754.375 771.196C736.91 771.862 717.048 772.463 699.797 769.984C697.899 759.48 697.626 682.751 699.89 674.097L708.841 673.723Z"/>
	<path fill="#E3594E" d="M704.52 678.5L756.983 678.705L756.995 766.512Q730.807 766.977 704.626 766.227C702.965 754.791 703.923 742.477 704.073 730.921Q704.456 704.712 704.52 678.5Z"/>
	<path fill="#E3594E" d="M592.389 764.985L630.464 764.978C635.545 778.422 638.181 792.615 644.133 805.716C665.981 806.83 687.909 805.392 709.782 806.478C713.248 809.676 715.94 813.129 718.593 817.013L622.375 817.024Q559.75 817.226 497.125 816.765C499.793 813.045 503.006 809.683 506.409 806.634C515.528 806.138 524.622 806.451 533.747 806.465L580.686 806.496C584.163 792.498 588.118 778.755 592.389 764.985Z"/>
	<path fill="#FCF3DD" d="M388.618 569.36C389.284 571.827 389.064 574.916 389.023 577.473C388.781 592.5 381.189 627.596 370.17 637.92C362.429 645.173 341.074 650.124 330.63 649.819C329.002 646.685 329.872 633.036 329.773 628.375C337.139 626.344 344.967 625.501 352.057 622.568C370.335 615.007 376.99 585.398 388.618 569.36Z"/>
	<path fill="#FCF3DD" d="M795.478 545.458C797.454 545.435 799.427 545.599 801.241 546.436C803.333 547.402 805.132 548.903 806.768 550.504C816.305 559.84 824.62 570.52 833.378 580.581C839.505 587.621 846.26 594.225 852.064 601.526C853.885 603.817 856.71 607.273 857.387 610.155C859.097 617.433 852.298 626.904 848.548 632.729L847.401 634.13C846.628 634.282 845.942 634.383 845.157 634.214C839.456 632.982 833.971 626.86 830.734 622.259C832.005 618.717 833.674 615.377 835.317 611.997C831.332 602.747 824.647 594.001 819.429 585.35C815.538 578.898 812.163 571.201 807.3 565.471C804.497 562.168 800.139 560.134 797.004 557.082C795.109 555.238 792.887 551.988 793.077 549.219C793.189 547.586 794.405 546.55 795.478 545.458Z"/>
	<path fill="#FEA26D" d="M828.976 624.881C834.25 629.039 835.671 632.301 842.493 636.141C842.444 648.016 843.02 659.889 842.805 671.763C838.607 663.339 826.817 633.214 828.976 624.881Z"/>
	<path fill="#FCF3DD" d="M805.505 591.368C809.352 592.09 811.354 593.971 813.844 596.767C814.388 600.19 815.754 605.303 813.832 608.413C812.513 610.546 810.169 610.888 807.931 611.454C805.288 611.008 802.689 610.235 800.781 608.24C799.162 606.548 798.462 604.354 798.66 602.033C799.06 597.35 802.095 594.199 805.505 591.368Z"/>
	<path fill="#FEA26D" d="M825.575 601.751C828.385 603.626 830.373 608.381 831.979 611.261C830.794 613.992 829.732 616.774 828.65 619.547C828.113 620.817 827.933 621.997 826.735 622.735L825.975 621.977C824.365 615.774 825.37 608.128 825.575 601.751Z"/>
	<path fill="#FCF3DD" d="M722.553 654.667C723.81 654.589 725.13 654.459 726.386 654.569C727.981 654.708 730.318 656.157 731.11 657.558C731.729 658.654 731.668 659.073 731.296 660.157C730.229 661.183 729.593 661.22 728.189 661.426C726.86 661.474 725.522 661.528 724.192 661.487C722.542 661.437 720.292 660.288 719.267 658.986C718.453 657.951 718.635 657.614 718.793 656.395C720.078 655.201 720.832 654.941 722.553 654.667Z"/>
	<path d="M109.298 132.647C121.715 132.37 134.34 133.117 146.791 133.114C162.957 133.109 179.227 132.423 195.378 132.781C199.405 132.87 203.962 133.004 207.824 134.266C215.522 136.783 222.608 146.678 228.105 152.419C268.124 152.869 308.179 152.513 348.203 152.509Q362.47 152.547 376.735 152.363C383.574 152.289 390.748 151.783 397.53 152.736C405.588 153.869 413.23 158.7 416.477 166.375C420.875 176.771 418.621 199.444 418.557 211.46L418.113 289.143Q418.052 301.384 418.118 313.623C418.137 317.008 417.831 320.852 418.269 324.187C418.406 325.229 418.604 325.675 419.224 326.495C419.852 326.815 420.641 327.139 421.19 327.575C421.913 328.148 422.105 328.359 422.095 329.283C422.068 331.773 420.389 332.882 418.672 334.423C418.062 347.888 421.274 371.817 413.496 382.691C409.163 388.748 403.167 391.132 396.119 392.389C375.908 393.278 355.389 392.528 335.151 392.467L232.441 392.408L150.52 392.423C136.994 392.439 123.291 393.348 109.8 392.371C104.267 391.971 99.3779 390.945 94.6511 387.838C88.6129 383.868 84.6322 377.329 83.3494 370.263C81.3409 359.201 82.5121 347.015 82.5439 335.774L82.5887 276.61L82.5021 199.958C82.4576 186.823 81.5427 173.585 82.5532 160.477C83.0026 154.648 84.1501 149.158 87.6673 144.334C93.0694 136.925 100.643 134.029 109.298 132.647Z"/>
	<path fill="#FCC272" d="M115.861 135.734C127.225 135.265 201.02 134.486 207.509 137.38C215.661 141.014 219.75 150.315 227.002 155.19C227.141 155.283 227.283 155.372 227.423 155.463C267.697 156.278 308.14 155.484 348.429 155.462L376.689 155.354C383.761 155.306 391.136 154.854 398.14 155.947C402.697 156.659 406.771 158.794 410.031 162.062C413.722 165.761 414.75 169.884 415.368 174.903C416.41 183.366 415.803 192.001 415.688 200.501Q415.548 216.814 415.577 233.128L415.895 355.086C415.952 364.867 416.294 376.267 408.684 383.627C402.79 389.327 395.479 389.515 387.804 389.418L195.073 389.422L140.714 389.501C129.968 389.585 118.679 390.459 107.996 389.358C102.751 388.817 97.7327 386.999 93.6709 383.559C87.2848 378.151 86.0579 370.125 85.5855 362.273C84.7962 349.152 85.5738 335.75 85.6255 322.591L85.6696 249.283L85.482 190.893C85.4436 180.196 84.6507 168.831 85.9084 158.219C86.5261 153.007 88.39 147.862 91.9957 143.966C98.5616 136.871 106.794 135.908 115.861 135.734Z"/>
	<path d="M105.63 193.249C124.532 192.577 143.555 193.422 162.472 193.478L274.775 193.57L351.894 193.565C367.859 193.517 384.085 192.708 399.991 194.103C400.66 208.895 400.335 223.743 400.256 238.547L399.991 302.444Q399.942 319.525 400.099 336.604C400.176 345.004 400.795 353.813 399.45 362.123C398.703 366.743 396.386 370.358 392.593 373.077C389.647 374.343 386.855 375.203 383.639 375.389C372.295 376.042 360.668 375.616 349.301 375.584L293.067 375.512L124.595 375.839C118.006 375.845 108.725 376.335 104.232 370.49C102.302 367.979 101.841 362.527 101.663 359.359C101.195 351.07 101.583 342.59 101.63 334.286L101.748 291.437C101.753 259.042 100.789 226.43 101.747 194.069C102.908 193.136 104.172 193.352 105.63 193.249Z"/>
	<path fill="#FCF3DD" d="M104.571 196.605C149.789 196.008 195.036 196.924 240.26 196.886C292.512 196.842 344.878 195.94 397.118 196.748L397.041 306.343L397.116 339.6C397.132 346.199 397.534 353.074 396.745 359.626C396.314 363.212 395.02 365.737 393.107 368.701C389.674 371.359 386.748 372.233 382.449 372.466C366.916 373.312 351.15 372.429 335.585 372.41L241.527 372.443L154.937 372.467C142.072 372.463 128.652 373.378 115.847 372.508C112.658 372.291 109.474 371.475 107.131 369.16C105.013 367.067 104.796 361.611 104.613 358.722C104.193 352.119 104.472 345.368 104.489 338.752L104.53 304.896L104.571 196.605Z"/>
	<path d="M194.891 223.591C202.162 223.153 209.574 223.451 216.863 223.464L256.873 223.519L286.428 223.395C292.246 223.372 298.262 223.056 304.049 223.676C308.278 224.13 312.606 225.251 316.195 227.602C319.852 229.997 322.766 234.511 323.569 238.794C325.977 251.642 324.128 267.34 324.178 280.564C324.231 294.636 325.477 309.535 324.186 323.502C323.88 326.804 323.455 329.864 321.541 332.669C318.111 337.697 312.84 340.51 306.965 341.582C299.506 342.326 291.804 342.022 284.314 342.025L246.827 341.951L218.119 341.877C211.327 341.917 204.393 342.311 197.617 341.764C194.009 341.473 190.458 340.681 187.252 338.94C182.866 336.557 179.044 332.112 177.789 327.232C175.194 317.146 177.051 291.47 177.041 279.499C177.032 268.103 176.182 256.554 177.028 245.182C177.307 241.427 177.682 236.724 179.622 233.438C183.068 227.601 188.641 225.2 194.891 223.591Z"/>
	<path fill="#E3594E" d="M200.938 226.195C223.509 225.663 246.284 226.261 268.874 226.331C280.276 226.367 292.205 225.159 303.522 226.343C307.529 226.762 311.947 227.635 315.147 230.225C319.073 233.404 320.518 237.394 321.071 242.263C322.746 257.01 321.547 274.709 321.513 289.81C321.489 300.344 322.498 311.489 321.345 321.941C320.922 325.774 320.361 329.62 317.799 332.664C313.404 337.884 306.643 338.823 300.253 339.269Q264.769 338.812 229.281 338.959C218.634 338.961 207.349 339.96 196.79 338.722C193.05 338.284 189.098 337.434 186.057 335.087C182.591 332.412 180.644 328.689 180.225 324.383C178.698 308.712 179.953 292.699 179.922 276.978C179.901 266.055 178.666 254.644 179.845 243.801C180.263 239.957 180.859 235.828 183.445 232.799C187.845 227.645 194.578 226.662 200.938 226.195Z"/>
	<path d="M228.994 244.63C236.251 247.261 252.809 260.801 259.867 265.869C268.72 272.226 277.813 278.232 286.656 284.611C279.765 290.911 271.916 296.01 264.233 301.276C253.182 309.444 241.866 318.897 229.502 324.947C229.282 298.235 230.641 271.288 228.994 244.63Z"/>
	<path fill="#FCF3DD" d="M232.374 250.137C249.317 260.368 265.892 273.435 282.139 284.891C275.171 290.113 267.93 295.019 260.813 300.039Q246.625 310.358 232.169 320.3Q231.5 285.216 232.374 250.137Z"/>
	<path d="M112.077 152.766Q112.388 152.721 112.701 152.691Q113.014 152.662 113.329 152.647Q113.643 152.632 113.957 152.633Q114.272 152.634 114.586 152.65Q114.9 152.666 115.213 152.697Q115.526 152.728 115.837 152.775Q116.148 152.821 116.457 152.882Q116.765 152.944 117.07 153.02Q117.375 153.096 117.676 153.187Q117.977 153.278 118.274 153.383Q118.57 153.489 118.861 153.609Q119.152 153.728 119.436 153.862Q119.721 153.996 119.999 154.143Q120.277 154.29 120.547 154.451Q120.818 154.612 121.08 154.785Q121.342 154.959 121.596 155.145Q121.849 155.331 122.094 155.529Q122.338 155.727 122.572 155.937Q122.807 156.147 123.03 156.368Q123.254 156.589 123.467 156.82Q123.68 157.052 123.882 157.293Q124.083 157.535 124.272 157.786Q124.462 158.037 124.639 158.297Q124.816 158.557 124.98 158.825Q125.145 159.093 125.296 159.369Q125.447 159.645 125.584 159.928Q125.722 160.21 125.845 160.5Q125.969 160.789 126.078 161.084Q126.188 161.379 126.283 161.678Q126.378 161.978 126.458 162.282Q126.538 162.586 126.604 162.894Q126.669 163.202 126.72 163.512Q126.771 163.822 126.806 164.135Q126.841 164.447 126.862 164.761Q126.882 165.075 126.887 165.39Q126.892 165.704 126.881 166.018Q126.871 166.333 126.845 166.646Q126.82 166.96 126.779 167.272Q126.738 167.584 126.683 167.893Q126.627 168.203 126.556 168.509Q126.485 168.815 126.4 169.118Q126.314 169.421 126.214 169.719Q126.114 170.017 126 170.31Q125.885 170.603 125.757 170.89Q125.628 171.177 125.486 171.458Q125.343 171.738 125.188 172.011Q125.032 172.285 124.863 172.55Q124.694 172.815 124.513 173.072Q124.331 173.329 124.138 173.577Q123.944 173.825 123.738 174.063Q123.533 174.301 123.316 174.529Q123.099 174.756 122.871 174.973Q122.644 175.19 122.406 175.396Q122.168 175.602 121.92 175.796Q121.673 175.99 121.416 176.172Q121.159 176.353 120.894 176.522Q120.629 176.691 120.356 176.847Q120.083 177.003 119.802 177.146Q119.522 177.288 119.235 177.417Q118.948 177.546 118.655 177.661Q118.363 177.775 118.064 177.876Q117.766 177.976 117.464 178.062Q117.161 178.148 116.855 178.219Q116.548 178.29 116.239 178.346Q115.817 178.423 115.39 178.471Q114.964 178.519 114.535 178.54Q114.107 178.56 113.678 178.551Q113.249 178.543 112.821 178.507Q112.394 178.47 111.969 178.405Q111.545 178.34 111.126 178.247Q110.707 178.155 110.295 178.034Q109.883 177.914 109.48 177.767Q109.077 177.62 108.685 177.446Q108.292 177.273 107.912 177.073Q107.532 176.874 107.166 176.65Q106.8 176.426 106.45 176.179Q106.099 175.931 105.766 175.661Q105.432 175.391 105.118 175.099Q104.803 174.807 104.508 174.496Q104.213 174.184 103.94 173.853Q103.667 173.522 103.416 173.174Q103.165 172.826 102.937 172.462Q102.71 172.098 102.507 171.72Q102.304 171.342 102.127 170.951Q101.949 170.56 101.798 170.159Q101.647 169.757 101.523 169.346Q101.399 168.935 101.302 168.517Q101.205 168.099 101.136 167.676Q101.067 167.252 101.026 166.825Q100.986 166.398 100.973 165.969Q100.961 165.54 100.977 165.111Q100.993 164.682 101.037 164.255Q101.082 163.828 101.154 163.405Q101.226 162.982 101.327 162.565Q101.427 162.148 101.555 161.738Q101.682 161.328 101.837 160.928Q101.991 160.528 102.172 160.138Q102.353 159.749 102.559 159.373Q102.765 158.996 102.995 158.634Q103.226 158.272 103.479 157.926Q103.733 157.58 104.01 157.252Q104.286 156.923 104.583 156.614Q104.88 156.304 105.198 156.015Q105.515 155.726 105.85 155.459Q106.186 155.191 106.538 154.946Q106.891 154.702 107.259 154.481Q107.627 154.26 108.009 154.064Q108.39 153.868 108.784 153.698Q109.178 153.527 109.583 153.383Q109.987 153.24 110.4 153.123Q110.813 153.006 111.233 152.917Q111.652 152.827 112.077 152.766Z"/>
	<path fill="#E3594E" d="M111.769 155.75Q112.007 155.698 112.248 155.657Q112.489 155.617 112.731 155.588Q112.973 155.559 113.217 155.542Q113.46 155.525 113.704 155.52Q113.948 155.515 114.192 155.522Q114.436 155.529 114.679 155.548Q114.922 155.566 115.165 155.597Q115.407 155.628 115.647 155.67Q115.887 155.712 116.125 155.766Q116.363 155.821 116.598 155.886Q116.833 155.952 117.065 156.029Q117.296 156.106 117.524 156.194Q117.751 156.282 117.974 156.382Q118.197 156.481 118.415 156.591Q118.633 156.701 118.845 156.821Q119.057 156.942 119.263 157.072Q119.469 157.203 119.669 157.344Q119.868 157.484 120.061 157.634Q120.253 157.785 120.438 157.944Q120.622 158.103 120.799 158.272Q120.976 158.44 121.144 158.616Q121.313 158.793 121.472 158.978Q121.632 159.162 121.782 159.354Q121.933 159.547 122.073 159.746Q122.214 159.945 122.345 160.151Q122.476 160.357 122.597 160.569Q122.717 160.781 122.828 160.999Q122.938 161.217 123.037 161.44Q123.137 161.662 123.225 161.89Q123.313 162.117 123.391 162.349Q123.468 162.58 123.534 162.815Q123.6 163.05 123.654 163.288Q123.708 163.526 123.751 163.766Q123.794 164.006 123.824 164.249Q123.855 164.491 123.874 164.734Q123.893 164.977 123.9 165.221Q123.907 165.465 123.903 165.709Q123.898 165.953 123.881 166.197Q123.864 166.44 123.836 166.682Q123.807 166.925 123.767 167.165Q123.727 167.406 123.674 167.645Q123.622 167.883 123.559 168.119Q123.495 168.354 123.42 168.586Q123.345 168.819 123.259 169.047Q123.172 169.275 123.075 169.499Q122.978 169.723 122.87 169.941Q122.761 170.16 122.643 170.373Q122.524 170.587 122.395 170.794Q122.266 171.001 122.127 171.202Q121.988 171.402 121.84 171.596Q121.691 171.79 121.533 171.976Q121.375 172.162 121.209 172.34Q121.042 172.518 120.867 172.688Q120.692 172.858 120.508 173.019Q120.325 173.18 120.134 173.332Q119.943 173.484 119.745 173.627Q119.547 173.769 119.342 173.902Q119.137 174.034 118.926 174.157Q118.715 174.279 118.498 174.391Q118.281 174.503 118.059 174.605Q117.837 174.706 117.611 174.796Q117.384 174.887 117.153 174.966Q116.922 175.045 116.688 175.113Q116.453 175.181 116.216 175.237Q115.976 175.294 115.733 175.339Q115.491 175.384 115.246 175.417Q115.002 175.45 114.756 175.471Q114.51 175.492 114.264 175.5Q114.017 175.509 113.771 175.506Q113.524 175.502 113.278 175.487Q113.032 175.471 112.787 175.443Q112.542 175.416 112.298 175.376Q112.055 175.336 111.813 175.284Q111.572 175.233 111.334 175.169Q111.096 175.105 110.861 175.03Q110.626 174.955 110.395 174.868Q110.164 174.781 109.938 174.683Q109.711 174.585 109.49 174.476Q109.269 174.367 109.053 174.247Q108.838 174.127 108.628 173.997Q108.419 173.867 108.216 173.726Q108.013 173.586 107.818 173.435Q107.622 173.285 107.434 173.125Q107.246 172.965 107.067 172.796Q106.887 172.627 106.716 172.45Q106.544 172.272 106.382 172.087Q106.22 171.901 106.067 171.707Q105.914 171.514 105.771 171.313Q105.628 171.112 105.495 170.904Q105.362 170.697 105.239 170.482Q105.116 170.268 105.004 170.049Q104.892 169.829 104.791 169.604Q104.69 169.379 104.601 169.149Q104.511 168.919 104.433 168.685Q104.354 168.451 104.288 168.214Q104.221 167.976 104.166 167.736Q104.111 167.496 104.068 167.253Q104.025 167.01 103.994 166.765Q103.963 166.52 103.945 166.274Q103.926 166.028 103.919 165.782Q103.913 165.535 103.918 165.289Q103.924 165.042 103.941 164.796Q103.959 164.55 103.989 164.305Q104.019 164.06 104.06 163.817Q104.102 163.574 104.156 163.333Q104.21 163.092 104.275 162.855Q104.341 162.617 104.418 162.383Q104.495 162.148 104.584 161.918Q104.673 161.688 104.773 161.463Q104.873 161.237 104.984 161.017Q105.095 160.796 105.216 160.582Q105.338 160.367 105.47 160.159Q105.602 159.951 105.745 159.749Q105.887 159.548 106.039 159.353Q106.191 159.159 106.352 158.973Q106.514 158.786 106.684 158.608Q106.855 158.429 107.034 158.26Q107.213 158.09 107.4 157.929Q107.587 157.769 107.782 157.617Q107.977 157.466 108.179 157.325Q108.381 157.183 108.59 157.052Q108.798 156.92 109.013 156.8Q109.229 156.679 109.449 156.569Q109.67 156.459 109.896 156.36Q110.122 156.26 110.352 156.173Q110.583 156.085 110.817 156.009Q111.052 155.932 111.29 155.868Q111.528 155.803 111.769 155.75Z"/>
	<path d="M189.09 153.241Q189.4 153.211 189.711 153.197Q190.022 153.183 190.333 153.184Q190.645 153.184 190.956 153.2Q191.267 153.216 191.576 153.247Q191.886 153.279 192.194 153.325Q192.502 153.371 192.807 153.432Q193.113 153.493 193.415 153.569Q193.717 153.645 194.014 153.736Q194.312 153.827 194.605 153.932Q194.899 154.037 195.186 154.156Q195.474 154.275 195.755 154.408Q196.037 154.541 196.311 154.688Q196.586 154.835 196.853 154.995Q197.12 155.154 197.38 155.327Q197.639 155.5 197.889 155.685Q198.139 155.87 198.38 156.067Q198.621 156.264 198.852 156.473Q199.083 156.682 199.304 156.901Q199.525 157.121 199.734 157.351Q199.944 157.582 200.142 157.822Q200.341 158.062 200.527 158.311Q200.713 158.561 200.887 158.819Q201.061 159.077 201.222 159.344Q201.383 159.61 201.531 159.884Q201.679 160.158 201.813 160.439Q201.947 160.72 202.068 161.007Q202.188 161.294 202.295 161.587Q202.401 161.88 202.493 162.177Q202.585 162.475 202.662 162.776Q202.739 163.078 202.802 163.383Q202.864 163.688 202.912 163.996Q202.96 164.303 202.992 164.613Q203.025 164.923 203.042 165.234Q203.059 165.544 203.061 165.856Q203.064 166.167 203.051 166.478Q203.038 166.789 203.009 167.099Q202.981 167.41 202.938 167.718Q202.895 168.026 202.837 168.332Q202.778 168.638 202.705 168.941Q202.632 169.243 202.544 169.542Q202.457 169.841 202.355 170.135Q202.252 170.429 202.136 170.718Q202.019 171.007 201.889 171.289Q201.759 171.572 201.615 171.848Q201.471 172.124 201.313 172.393Q201.156 172.662 200.986 172.922Q200.816 173.183 200.633 173.435Q200.45 173.687 200.255 173.93Q200.06 174.173 199.854 174.406Q199.647 174.639 199.43 174.862Q199.212 175.085 198.984 175.297Q198.756 175.509 198.518 175.709Q198.28 175.91 198.032 176.098Q197.784 176.287 197.528 176.463Q197.271 176.64 197.006 176.803Q196.741 176.967 196.469 177.117Q196.196 177.268 195.916 177.405Q195.637 177.542 195.351 177.665Q195.065 177.788 194.773 177.898Q194.482 178.007 194.185 178.101Q193.888 178.196 193.588 178.276Q193.287 178.357 192.982 178.422Q192.678 178.488 192.371 178.538Q192.063 178.589 191.754 178.624Q191.441 178.66 191.126 178.68Q190.812 178.701 190.497 178.706Q190.181 178.71 189.866 178.7Q189.551 178.689 189.237 178.663Q188.923 178.637 188.611 178.595Q188.298 178.553 187.988 178.496Q187.678 178.439 187.372 178.367Q187.065 178.294 186.762 178.207Q186.459 178.119 186.161 178.017Q185.863 177.915 185.57 177.798Q185.277 177.681 184.99 177.55Q184.704 177.419 184.424 177.274Q184.144 177.129 183.872 176.97Q183.6 176.811 183.336 176.639Q183.071 176.467 182.816 176.282Q182.561 176.098 182.315 175.9Q182.069 175.703 181.833 175.494Q181.597 175.285 181.372 175.064Q181.147 174.844 180.933 174.612Q180.719 174.381 180.516 174.139Q180.314 173.898 180.124 173.646Q179.934 173.395 179.756 173.135Q179.578 172.874 179.414 172.605Q179.249 172.336 179.098 172.06Q178.947 171.783 178.81 171.499Q178.673 171.215 178.55 170.925Q178.427 170.635 178.318 170.339Q178.21 170.043 178.116 169.742Q178.022 169.441 177.944 169.136Q177.865 168.831 177.801 168.522Q177.738 168.213 177.689 167.902Q177.641 167.59 177.608 167.277Q177.575 166.964 177.558 166.649Q177.54 166.334 177.538 166.019Q177.537 165.704 177.55 165.389Q177.564 165.074 177.593 164.76Q177.623 164.446 177.667 164.134Q177.712 163.822 177.772 163.513Q177.832 163.203 177.908 162.897Q177.983 162.591 178.073 162.289Q178.163 161.987 178.269 161.69Q178.374 161.393 178.493 161.101Q178.613 160.81 178.747 160.524Q178.881 160.239 179.028 159.961Q179.176 159.682 179.338 159.411Q179.499 159.141 179.674 158.878Q179.848 158.616 180.035 158.362Q180.223 158.109 180.422 157.865Q180.622 157.621 180.833 157.387Q181.045 157.153 181.267 156.93Q181.49 156.707 181.723 156.495Q181.957 156.283 182.2 156.083Q182.444 155.883 182.697 155.695Q182.95 155.508 183.212 155.333Q183.474 155.158 183.745 154.996Q184.015 154.834 184.293 154.685Q184.571 154.537 184.857 154.403Q185.142 154.268 185.433 154.148Q185.724 154.028 186.021 153.922Q186.318 153.816 186.62 153.726Q186.922 153.635 187.228 153.559Q187.534 153.483 187.843 153.422Q188.152 153.362 188.464 153.316Q188.776 153.271 189.09 153.241Z"/>
	<path fill="#FCC272" d="M187.562 156.746Q187.785 156.679 188.01 156.622Q188.236 156.566 188.464 156.521Q188.692 156.475 188.922 156.441Q189.152 156.407 189.383 156.384Q189.614 156.361 189.846 156.35Q190.079 156.338 190.311 156.338Q190.544 156.338 190.776 156.349Q191.008 156.36 191.24 156.382Q191.471 156.405 191.701 156.438Q191.931 156.472 192.159 156.517Q192.387 156.562 192.613 156.618Q192.839 156.674 193.061 156.741Q193.284 156.807 193.503 156.885Q193.722 156.963 193.937 157.051Q194.152 157.139 194.363 157.238Q194.573 157.336 194.779 157.445Q194.984 157.554 195.184 157.673Q195.384 157.791 195.578 157.919Q195.772 158.048 195.959 158.185Q196.147 158.323 196.327 158.469Q196.508 158.616 196.681 158.771Q196.854 158.926 197.019 159.09Q197.185 159.253 197.342 159.424Q197.499 159.596 197.648 159.774Q197.797 159.953 197.936 160.139Q198.076 160.325 198.207 160.517Q198.337 160.709 198.458 160.908Q198.579 161.107 198.69 161.311Q198.801 161.515 198.902 161.724Q199.004 161.934 199.094 162.148Q199.185 162.362 199.265 162.58Q199.346 162.798 199.415 163.02Q199.484 163.242 199.543 163.467Q199.602 163.692 199.649 163.919Q199.697 164.147 199.733 164.377Q199.77 164.606 199.795 164.837Q199.82 165.068 199.834 165.3Q199.848 165.533 199.85 165.765Q199.853 165.997 199.844 166.23Q199.835 166.462 199.815 166.694Q199.795 166.925 199.763 167.156Q199.732 167.386 199.689 167.615Q199.647 167.843 199.593 168.069Q199.539 168.296 199.475 168.519Q199.41 168.742 199.334 168.962Q199.259 169.182 199.173 169.398Q199.087 169.614 198.99 169.825Q198.894 170.037 198.787 170.243Q198.68 170.45 198.563 170.651Q198.447 170.852 198.32 171.047Q198.194 171.242 198.058 171.431Q197.923 171.62 197.778 171.802Q197.633 171.984 197.48 172.158Q197.326 172.333 197.165 172.5Q197.003 172.667 196.833 172.826Q196.663 172.985 196.486 173.135Q196.309 173.285 196.124 173.427Q195.94 173.569 195.749 173.701Q195.558 173.833 195.36 173.956Q195.163 174.079 194.96 174.192Q194.757 174.306 194.549 174.409Q194.34 174.512 194.127 174.605Q193.914 174.698 193.697 174.78Q193.479 174.862 193.258 174.934Q193.034 175.007 192.807 175.068Q192.58 175.129 192.35 175.179Q192.12 175.23 191.887 175.268Q191.655 175.307 191.421 175.334Q191.187 175.361 190.953 175.377Q190.718 175.392 190.482 175.396Q190.247 175.4 190.012 175.393Q189.776 175.385 189.542 175.366Q189.307 175.347 189.074 175.316Q188.84 175.285 188.609 175.243Q188.377 175.2 188.148 175.147Q187.919 175.093 187.693 175.028Q187.466 174.963 187.244 174.887Q187.021 174.811 186.802 174.724Q186.583 174.637 186.369 174.54Q186.155 174.442 185.946 174.334Q185.737 174.226 185.533 174.108Q185.33 173.989 185.132 173.861Q184.935 173.733 184.744 173.595Q184.553 173.457 184.369 173.31Q184.185 173.163 184.009 173.007Q183.833 172.852 183.664 172.687Q183.496 172.523 183.336 172.35Q183.175 172.178 183.024 171.997Q182.873 171.817 182.73 171.63Q182.588 171.442 182.455 171.248Q182.322 171.053 182.199 170.853Q182.076 170.652 181.963 170.446Q181.85 170.239 181.747 170.027Q181.644 169.816 181.552 169.599Q181.46 169.382 181.379 169.162Q181.297 168.941 181.227 168.716Q181.157 168.491 181.097 168.264Q181.038 168.036 180.99 167.805Q180.943 167.575 180.906 167.342Q180.87 167.11 180.845 166.875Q180.82 166.641 180.807 166.406Q180.793 166.171 180.792 165.936Q180.79 165.701 180.8 165.465Q180.81 165.23 180.831 164.996Q180.853 164.761 180.886 164.528Q180.919 164.295 180.964 164.064Q181.008 163.833 181.064 163.604Q181.12 163.376 181.187 163.15Q181.254 162.924 181.332 162.702Q181.411 162.48 181.5 162.262Q181.589 162.044 181.688 161.831Q181.788 161.618 181.898 161.41Q182.008 161.202 182.129 160.999Q182.249 160.797 182.379 160.601Q182.509 160.405 182.649 160.215Q182.788 160.026 182.937 159.843Q183.086 159.661 183.244 159.486Q183.401 159.311 183.567 159.144Q183.733 158.978 183.907 158.819Q184.082 158.661 184.263 158.511Q184.445 158.361 184.634 158.221Q184.823 158.08 185.018 157.949Q185.214 157.818 185.416 157.697Q185.618 157.576 185.825 157.465Q186.033 157.354 186.246 157.253Q186.458 157.153 186.676 157.063Q186.893 156.973 187.115 156.893Q187.337 156.814 187.562 156.746Z"/>
	<path d="M148.951 153.477Q149.251 153.397 149.555 153.333Q149.859 153.268 150.166 153.219Q150.473 153.169 150.781 153.135Q151.09 153.1 151.4 153.081Q151.71 153.062 152.021 153.058Q152.332 153.054 152.642 153.066Q152.953 153.077 153.262 153.104Q153.572 153.131 153.879 153.173Q154.187 153.215 154.493 153.272Q154.798 153.329 155.1 153.401Q155.402 153.473 155.701 153.56Q155.999 153.647 156.293 153.749Q156.586 153.85 156.875 153.966Q157.163 154.082 157.445 154.212Q157.727 154.342 158.003 154.485Q158.278 154.629 158.546 154.786Q158.814 154.943 159.074 155.114Q159.334 155.284 159.585 155.466Q159.837 155.649 160.079 155.844Q160.321 156.039 160.553 156.246Q160.785 156.452 161.006 156.67Q161.228 156.888 161.438 157.116Q161.649 157.345 161.848 157.583Q162.047 157.822 162.234 158.07Q162.421 158.318 162.596 158.575Q162.77 158.832 162.932 159.097Q163.094 159.363 163.242 159.636Q163.39 159.909 163.525 160.189Q163.66 160.468 163.781 160.755Q163.902 161.041 164.008 161.333Q164.115 161.625 164.207 161.921Q164.299 162.218 164.376 162.519Q164.453 162.82 164.516 163.124Q164.578 163.429 164.625 163.736Q164.673 164.043 164.705 164.352Q164.737 164.661 164.753 164.971Q164.77 165.281 164.772 165.592Q164.773 165.903 164.759 166.213Q164.746 166.523 164.716 166.833Q164.687 167.142 164.643 167.45Q164.599 167.757 164.539 168.062Q164.48 168.367 164.405 168.669Q164.331 168.97 164.242 169.268Q164.152 169.566 164.049 169.858Q163.945 170.151 163.827 170.439Q163.709 170.726 163.577 171.007Q163.445 171.288 163.299 171.563Q163.153 171.837 162.994 172.104Q162.835 172.371 162.663 172.63Q162.49 172.888 162.306 173.138Q162.121 173.388 161.924 173.628Q161.728 173.869 161.519 174.099Q161.311 174.33 161.091 174.55Q160.872 174.77 160.642 174.978Q160.412 175.187 160.172 175.384Q159.932 175.582 159.682 175.767Q159.433 175.952 159.174 176.125Q158.916 176.297 158.65 176.457Q158.383 176.617 158.109 176.763Q157.835 176.909 157.554 177.042Q157.273 177.174 156.986 177.293Q156.699 177.412 156.406 177.516Q156.113 177.62 155.816 177.71Q155.518 177.8 155.217 177.875Q154.918 177.949 154.617 178.009Q154.315 178.068 154.01 178.113Q153.706 178.158 153.399 178.188Q153.093 178.218 152.786 178.233Q152.479 178.248 152.171 178.247Q151.863 178.247 151.556 178.232Q151.248 178.217 150.942 178.187Q150.636 178.157 150.332 178.112Q150.027 178.067 149.725 178.007Q149.424 177.947 149.125 177.872Q148.827 177.798 148.532 177.709Q148.237 177.62 147.948 177.516Q147.658 177.413 147.373 177.296Q147.089 177.178 146.81 177.047Q146.532 176.916 146.26 176.772Q145.989 176.627 145.724 176.469Q145.46 176.312 145.204 176.141Q144.948 175.971 144.7 175.788Q144.452 175.606 144.214 175.411Q143.976 175.217 143.747 175.011Q143.518 174.805 143.3 174.588Q143.082 174.371 142.874 174.144Q142.667 173.917 142.471 173.679Q142.275 173.442 142.09 173.196Q141.906 172.95 141.734 172.694Q141.562 172.439 141.402 172.176Q141.243 171.913 141.097 171.642Q140.95 171.372 140.817 171.094Q140.685 170.817 140.565 170.533Q140.446 170.249 140.341 169.96Q140.236 169.671 140.145 169.377Q140.054 169.083 139.977 168.785Q139.9 168.487 139.839 168.186Q139.777 167.884 139.73 167.58Q139.683 167.276 139.65 166.97Q139.618 166.664 139.601 166.357Q139.584 166.05 139.582 165.742Q139.579 165.434 139.592 165.127Q139.605 164.819 139.633 164.513Q139.661 164.206 139.704 163.902Q139.746 163.597 139.804 163.295Q139.861 162.993 139.934 162.693Q140.006 162.394 140.093 162.099Q140.18 161.804 140.281 161.513Q140.382 161.223 140.497 160.937Q140.612 160.652 140.741 160.373Q140.87 160.093 141.013 159.821Q141.155 159.548 141.311 159.282Q141.466 159.017 141.635 158.759Q141.803 158.502 141.984 158.253Q142.165 158.004 142.357 157.764Q142.55 157.524 142.754 157.294Q142.958 157.064 143.174 156.844Q143.389 156.624 143.615 156.415Q143.84 156.206 144.076 156.008Q144.311 155.81 144.556 155.624Q144.801 155.438 145.055 155.264Q145.309 155.09 145.571 154.928Q145.833 154.767 146.102 154.618Q146.372 154.47 146.648 154.335Q146.925 154.2 147.208 154.079Q147.49 153.957 147.779 153.85Q148.067 153.742 148.36 153.649Q148.654 153.556 148.951 153.477Z"/>
	<path fill="#FCC272" d="M151.103 156.131C152.202 156.224 153.3 156.314 154.371 156.595C156.88 157.251 159.14 159.054 160.395 161.318C161.667 163.611 161.859 166.271 160.989 168.736C159.772 172.188 157.364 173.677 154.192 175.158C152.531 175.031 150.792 174.96 149.25 174.272C146.79 173.175 144.811 170.942 143.872 168.436C142.955 165.989 142.994 163.15 144.252 160.828C145.786 157.999 148.146 156.971 151.103 156.131Z"/>
	<path d="M856.338 228.699C872.548 224.629 888.619 219.478 904.983 216.078Q911.598 237.109 917.727 258.286C919.668 264.914 921.012 272.966 924.196 279.071C926.101 277.084 928.343 274.461 931.135 273.894L932.014 274.225C935.094 282.945 936.986 292.395 939.604 301.318C945.331 320.829 951.864 340.453 955.646 360.445L815.366 400.763C810.08 379.966 804.016 359.261 798.202 338.597C795.723 329.788 792.079 320.687 790.802 311.64L791.297 311.094L790.862 310.229C794.507 309.511 799.782 312.724 803.25 313.841C802.852 305.299 796.319 290.971 793.823 282.009C792.114 276.668 790.512 271.348 789.115 265.915L789.193 264.619C791.042 263.282 840.12 250.15 846.992 248.301C851.933 242.83 852.722 234.996 856.338 228.699Z"/>
	<path fill="#E3594E" d="M856.338 228.699C872.548 224.629 888.619 219.478 904.983 216.078Q911.598 237.109 917.727 258.286C919.668 264.914 921.012 272.966 924.196 279.071C923.429 279.915 922.683 280.807 921.867 281.602C920.355 282.863 918.812 284.1 917.331 285.396L867.099 328.836C848.86 323.995 830.249 320.758 812.054 315.892L807.295 314.875C805.922 314.619 804.594 314.216 803.25 313.841C802.852 305.299 796.319 290.971 793.823 282.009C792.114 276.668 790.512 271.348 789.115 265.915L789.193 264.619C791.042 263.282 840.12 250.15 846.992 248.301C851.933 242.83 852.722 234.996 856.338 228.699Z"/>
	<path fill="#FCF3DD" d="M856.338 228.699C872.548 224.629 888.619 219.478 904.983 216.078Q911.598 237.109 917.727 258.286C919.668 264.914 921.012 272.966 924.196 279.071C923.429 279.915 922.683 280.807 921.867 281.602C920.355 282.863 918.812 284.1 917.331 285.396C914.953 275.884 911.782 266.667 908.863 257.317Q904.579 243.189 900.45 229.015C896.19 236.66 892.723 244.71 889.045 252.645C860.079 261.866 830.371 268.983 801.533 278.67C804.871 288.761 811.816 305.791 812.054 315.892L807.295 314.875C805.922 314.619 804.594 314.216 803.25 313.841C802.852 305.299 796.319 290.971 793.823 282.009C792.114 276.668 790.512 271.348 789.115 265.915L789.193 264.619C791.042 263.282 840.12 250.15 846.992 248.301C851.933 242.83 852.722 234.996 856.338 228.699Z"/>
	<path fill="#CC241B" d="M856.338 228.699C872.548 224.629 888.619 219.478 904.983 216.078Q911.598 237.109 917.727 258.286C919.668 264.914 921.012 272.966 924.196 279.071C923.429 279.915 922.683 280.807 921.867 281.602C920.651 274.157 917.644 266.756 915.511 259.507C911.488 245.829 907.884 231.843 902.993 218.447C898.006 219.777 893.18 221.593 888.219 223.002C878.13 225.868 867.902 228.409 857.704 230.863C855.535 237.663 853.924 245.203 848.736 250.428C839.148 252.956 829.683 256.053 820.108 258.662C811.79 260.929 798.95 262.819 791.767 266.818L789.115 265.915L789.193 264.619C791.042 263.282 840.12 250.15 846.992 248.301C851.933 242.83 852.722 234.996 856.338 228.699Z"/>
	<path fill="#CC241B" d="M862.342 235.248C870.157 233.696 877.705 231.517 885.338 229.254C889.16 228.12 893.45 226.4 897.36 225.831C898.919 225.604 899.156 225.825 900.439 226.614L899.454 225.789L900.076 226.004L900.421 226.783C899.534 228.259 897.871 228.767 896.284 229.19C893.238 230 890.103 230.329 887.045 231.089C879.545 232.953 872.118 235.229 864.693 237.37C861.604 244.298 858.748 251.264 854.476 257.567C840.296 261.992 825.547 265.348 811.209 269.326C805.587 270.886 799.468 272.135 794.128 274.512C793.802 273.65 793.579 272.726 793.318 271.84Q822.95 262.66 853.064 255.214C856.581 248.759 859.457 242.004 862.342 235.248Z"/>
	<path fill="#CC241B" d="M795.912 280.549C799.292 291.828 802.321 304.169 807.295 314.875C805.922 314.619 804.594 314.216 803.25 313.841C802.852 305.299 796.319 290.971 793.823 282.009C794.669 281.579 795.197 281.157 795.912 280.549Z"/>
	<path fill="#AC1713" d="M789.115 265.915L791.767 266.818C792.331 268.484 792.891 270.132 793.318 271.84C793.579 272.726 793.802 273.65 794.128 274.512C794.746 276.514 795.424 278.511 795.912 280.549C795.197 281.157 794.669 281.579 793.823 282.009C792.114 276.668 790.512 271.348 789.115 265.915Z"/>
	<path fill="#FCC272" d="M929.539 278.887C929.637 278.94 929.749 278.973 929.832 279.047C932.921 281.79 949.755 347.937 952.627 358.737C930.921 363.914 909.671 370.467 888.277 376.765L817.507 397.242L813.951 384.767L794.256 314.345C818.541 321.622 843.805 325.275 868.291 331.983C875.511 324.643 883.725 318.224 891.546 311.541L929.539 278.887Z"/>
	<path fill="#20171D" d="M219.846 710.354C236.655 718.333 255.419 722.964 273.661 726.279C276.677 726.827 284.38 727.518 286.139 729.879C296.335 758.105 307.846 786.13 319.508 813.789Q305.637 840.719 292.57 868.048C288.815 875.871 280.333 897.412 275.686 902.77L273.303 905.165C266.787 907.314 259.818 908.481 253.096 909.825C252.225 908.944 251.47 907.927 250.686 906.968C256.633 893.81 260.397 878.778 264.725 865.001C269.924 848.454 275.641 832.052 280.389 815.371Q272.188 804.316 264.193 793.112C260.97 788.59 257.892 783.607 254.223 779.45C251.385 773.987 247.388 768.81 243.959 763.692C237.299 753.753 230.988 742.742 222.495 734.261C229.176 750.934 242.313 764.23 251.715 779.336Q240.803 801.461 230.337 823.801C206.974 833.99 182.531 842.204 158.704 851.29C152.738 853.565 146.127 854.822 140.379 857.496C138.975 858.15 138.045 858.724 137.491 860.244C137.36 860.603 137.299 861.081 137.238 861.464C136.768 860.429 136.649 860.281 135.722 859.623L134.775 860.022C133.75 851.719 129.895 846.135 125.436 839.339L125.064 836.64C134.595 833.989 143.679 828.762 152.608 824.536C168.733 816.903 184.862 809.053 201.498 802.588C204.834 788.737 207.396 774.664 210.224 760.699C213.611 743.976 217.197 727.213 219.846 710.354Z"/>
	<path fill="#E3594E" d="M757.019 79.5031L778.491 79.4875L778.508 96.1557C784.791 97.7282 790.745 100.905 796.553 103.707C800.888 99.5897 805.382 95.616 809.798 91.5837Q817.233 98.4013 823.659 106.178C818.63 110.007 814.173 114.648 809.757 119.154C812.924 124.219 814.754 129.527 816.662 135.146C822.69 135.627 828.792 135.473 834.837 135.494L834.615 156.888Q825.542 156.971 816.474 156.637C814.641 161.786 812.644 166.808 810.486 171.828C814.516 175.578 818.698 179.213 822.25 183.431C817.434 189.005 812.039 193.942 806.611 198.902C802.799 195.009 799.234 190.857 795.607 186.792C789.44 189.336 783.34 191.835 777.025 193.999Q777.141 202.842 777.039 211.686C770.455 212.936 763.209 212.187 756.544 211.967L756.54 193.883C750.647 191.92 745.007 189.495 739.346 186.958C735.69 191.025 731.913 194.874 727.981 198.673C722.577 193.818 717.615 188.488 712.58 183.256C716.548 179.158 720.94 175.411 725.216 171.635C722.197 166.797 719.95 161.816 717.943 156.484L699.037 156.498L698.989 135.017L717.449 135.504Q720.528 126.592 724.78 118.176C720.552 114.567 716.738 110.577 712.876 106.588Q720.004 98.7865 727.364 91.2038C731.169 95.6336 735.636 99.6136 739.861 103.647C745.415 100.544 751.134 98.1655 757.108 96.0046C757.009 90.5078 757.045 85.0012 757.019 79.5031Z"/>
	<path fill="#FCF3DD" d="M762.151 111.758Q762.973 111.631 763.8 111.545Q764.628 111.459 765.458 111.413Q766.289 111.368 767.12 111.363Q767.952 111.358 768.783 111.394Q769.614 111.43 770.442 111.506Q771.27 111.583 772.094 111.7Q772.917 111.817 773.734 111.974Q774.551 112.131 775.359 112.328Q776.167 112.525 776.964 112.761Q777.762 112.997 778.547 113.272Q779.332 113.547 780.102 113.86Q780.873 114.173 781.627 114.524Q782.382 114.874 783.118 115.261Q783.854 115.648 784.571 116.07Q785.287 116.493 785.982 116.95Q786.677 117.407 787.349 117.897Q788.02 118.388 788.667 118.911Q789.314 119.434 789.935 119.987Q790.555 120.541 791.148 121.125Q791.74 121.708 792.304 122.32Q792.867 122.932 793.4 123.571Q793.933 124.21 794.433 124.874Q794.934 125.538 795.402 126.225Q795.87 126.913 796.303 127.623Q796.737 128.333 797.135 129.063Q797.533 129.793 797.895 130.542Q798.257 131.291 798.582 132.057Q798.907 132.822 799.194 133.603Q799.481 134.384 799.73 135.177Q799.978 135.971 800.188 136.776Q800.397 137.581 800.567 138.395Q800.736 139.209 800.866 140.031Q800.996 140.853 801.085 141.68Q801.174 142.507 801.223 143.337Q801.271 144.167 801.279 144.999Q801.287 145.831 801.255 146.662Q801.222 147.493 801.148 148.321Q801.075 149.15 800.961 149.974Q800.847 150.798 800.693 151.615Q800.539 152.432 800.345 153.241Q800.151 154.05 799.918 154.848Q799.685 155.647 799.413 156.433Q799.141 157.219 798.831 157.991Q798.52 158.762 798.173 159.518Q797.825 160.274 797.441 161.011Q797.057 161.749 796.637 162.467Q796.217 163.185 795.762 163.882Q795.308 164.578 794.82 165.252Q794.332 165.925 793.811 166.574Q793.291 167.223 792.739 167.845Q792.188 168.468 791.606 169.063Q791.025 169.658 790.415 170.223Q789.805 170.789 789.169 171.324Q788.532 171.859 787.87 172.362Q787.207 172.866 786.521 173.336Q785.835 173.806 785.127 174.242Q784.419 174.679 783.69 175.08Q782.961 175.48 782.214 175.845Q781.466 176.21 780.702 176.538Q779.938 176.866 779.158 177.155Q778.378 177.445 777.586 177.697Q776.793 177.948 775.989 178.161Q775.184 178.373 774.371 178.546Q773.557 178.718 772.736 178.851Q771.911 178.984 771.08 179.077Q770.25 179.169 769.416 179.221Q768.582 179.272 767.746 179.283Q766.911 179.293 766.076 179.263Q765.24 179.232 764.408 179.161Q763.575 179.089 762.747 178.976Q761.919 178.864 761.098 178.711Q760.276 178.558 759.463 178.364Q758.65 178.171 757.848 177.938Q757.045 177.705 756.255 177.433Q755.465 177.16 754.689 176.85Q753.913 176.539 753.154 176.19Q752.394 175.842 751.653 175.456Q750.911 175.071 750.19 174.649Q749.468 174.228 748.768 173.771Q748.068 173.315 747.392 172.825Q746.715 172.334 746.063 171.811Q745.412 171.288 744.786 170.734Q744.161 170.179 743.564 169.595Q742.967 169.01 742.399 168.397Q741.831 167.784 741.294 167.143Q740.757 166.503 740.253 165.837Q739.748 165.171 739.277 164.481Q738.805 163.791 738.368 163.078Q737.932 162.366 737.53 161.633Q737.129 160.9 736.764 160.148Q736.399 159.396 736.072 158.628Q735.745 157.859 735.456 157.075Q735.167 156.291 734.916 155.493Q734.666 154.696 734.455 153.887Q734.245 153.079 734.074 152.26Q733.903 151.442 733.773 150.617Q733.643 149.792 733.553 148.961Q733.464 148.13 733.415 147.296Q733.367 146.461 733.359 145.626Q733.352 144.79 733.386 143.955Q733.419 143.12 733.494 142.288Q733.569 141.455 733.684 140.628Q733.8 139.8 733.956 138.979Q734.112 138.158 734.308 137.346Q734.505 136.533 734.741 135.732Q734.977 134.93 735.252 134.141Q735.527 133.352 735.841 132.577Q736.154 131.803 736.506 131.045Q736.857 130.286 737.245 129.546Q737.634 128.806 738.058 128.086Q738.482 127.366 738.941 126.668Q739.4 125.97 739.893 125.295Q740.386 124.62 740.911 123.97Q741.437 123.32 741.993 122.697Q742.55 122.074 743.137 121.479Q743.724 120.884 744.339 120.318Q744.954 119.753 745.597 119.218Q746.239 118.684 746.907 118.182Q747.575 117.679 748.267 117.21Q748.958 116.742 749.672 116.307Q750.386 115.873 751.121 115.475Q751.855 115.076 752.609 114.714Q753.362 114.352 754.132 114.027Q754.902 113.703 755.687 113.417Q756.472 113.13 757.27 112.883Q758.069 112.636 758.878 112.428Q759.688 112.22 760.506 112.053Q761.325 111.885 762.151 111.758Z"/>
	<path d="M92.9988 843.839Q108.935 839.808 125.064 836.64L125.436 839.339C129.895 846.135 133.75 851.719 134.775 860.022L135.722 859.623C136.649 860.281 136.768 860.429 137.238 861.464C136.263 873.979 138.017 892.092 133.611 903.541C129.917 913.138 121.072 916.875 112.342 920.644Q101.847 882.449 92.9988 843.839Z"/>
	<path fill="#FCF3DD" d="M125.436 839.339C129.895 846.135 133.75 851.719 134.775 860.022C134.562 861.016 134.444 862.351 133.748 863.123C133.234 863.695 112.154 861.574 108.86 861.424Q106.599 852.903 104.642 844.307C111.457 842.352 118.529 840.962 125.436 839.339Z"/>
	<path fill="#FCF3DD" d="M113.183 881.875C118.24 882.153 124.903 881.84 129.394 884.324C131.538 885.51 132.897 887.225 133.466 889.619C134.781 895.157 131.077 903.256 128.255 907.967C126.054 910.411 123.615 912.153 120.866 913.897Q116.336 898.051 113.183 881.875Z"/>
	<path fill="#E3594E" d="M101.071 845.166C101.158 845.211 101.254 845.241 101.331 845.301C102.334 846.09 102.589 847.459 102.918 848.62C106.343 860.712 108.291 873.136 111.111 885.366C113.238 894.597 117.239 905.016 117.525 914.416C116.883 915.699 115.361 916.224 114.142 916.866C109.852 903.428 107.003 889.415 103.523 875.747C101.758 868.816 96.147 853.044 96.6024 846.613C97.7787 845.409 99.4834 845.409 101.071 845.166Z"/>
	<path fill="#FCF3DD" d="M109.288 864.021Q121.704 864.709 134.049 866.204C133.94 868.478 133.711 870.754 133.531 873.023C125.958 872.942 118.267 871.43 110.796 870.301L109.288 864.021Z"/>
	<path fill="#E3594E" d="M111.653 873.931C117.769 874.195 127.548 874.019 132.712 877.154C133.692 878.62 133.466 880.31 133.471 882.004C126.801 880.647 120.019 879.957 113.364 878.532C112.236 877.461 112.044 875.451 111.653 873.931Z"/>
	<defs>
		<linearGradient id="gradient_2" gradientUnits="userSpaceOnUse" x1="304.33157" y1="627.17194" x2="289.07559" y2="572.57458">
			<stop offset="0" stop-color="black"/>
			<stop offset="1" stop-color="#23131D"/>
		</linearGradient>
	</defs>
	<path fill="url(#gradient_2)" d="M282.479 585.095L282.692 584.369C284.356 578.74 286.485 574.351 291.976 571.546C297.574 568.687 304.9 568.239 310.851 570.206C314.144 571.294 317.44 573.308 318.972 576.55C321.94 582.831 318.739 597.817 316.501 604.379C312.613 615.776 306.638 612.1 301.512 615.836C300.17 616.814 300.433 618.109 300.292 619.616L299.447 619.854C299.324 621.142 299.32 622.064 299.538 623.339C299.821 624.996 299.551 626.713 298.607 628.143C297.712 629.499 296.236 630.059 294.69 630.216C291.198 630.571 287.884 628.787 284.479 628.208C284.234 628.092 283.986 627.981 283.744 627.859C279.171 625.55 280.234 618.342 275.048 619.627C269.805 620.925 266.739 627.294 262.144 629.899C262.912 628.409 263.799 626.913 264.771 625.544C268.538 620.238 273.239 617.38 279.634 616.259Q283.085 610.289 286.383 604.234L285.289 598.855C284.138 598.783 282.987 598.715 281.837 598.628C277.2 598.275 272.925 596.543 269.937 592.836C267.733 590.101 266.463 586.375 266.961 582.856C267.221 581.022 268.096 578.814 269.774 577.823C271.044 577.074 272.296 576.834 273.737 577.139C277.89 578.018 280.242 581.86 282.479 585.095Z"/>
	<path fill="#FCF3DD" d="M293.208 585.28C300.708 586.288 308.255 588.848 315.539 590.892Q315.477 594.331 315.14 597.754C314.64 603.35 312.898 606.963 308.578 610.594C306.905 611.352 305.257 612.109 303.415 612.332C298.104 612.974 293.921 610.374 289.909 607.283C288.828 603.878 288.073 600.655 287.591 597.114C289.63 593.176 291.804 589.515 293.208 585.28Z"/>
	<path fill="#FCF3DD" d="M287.061 608.465C290.428 611.377 293.524 613.447 297.664 615.123C297.66 618.46 298.163 622.887 296.735 625.967C295.871 627.828 294.663 628.27 292.862 628.888Q290.831 628.303 288.821 627.65C286.306 626.817 283.712 625.464 282.671 622.86C280.897 618.42 285.036 612.307 287.061 608.465Z"/>
	<defs>
		<linearGradient id="gradient_3" gradientUnits="userSpaceOnUse" x1="620.44263" y1="156.10962" x2="602.83826" y2="101.19738">
			<stop offset="0" stop-color="black"/>
			<stop offset="1" stop-color="#271922"/>
		</linearGradient>
	</defs>
	<path fill="url(#gradient_3)" d="M570.691 111.13C581.114 107.331 630.903 91.1924 639.846 92.1138C641.756 95.2164 640.407 143.397 640.574 151.362C639.221 151.095 638.615 151.091 637.542 150.19C637.158 148.763 637.143 147.322 637.072 145.855C636.335 132.676 636.808 118.933 637.213 105.719C616.014 110.432 595.299 116.781 574.481 122.908L574.462 130.176C574.372 129.57 574.31 128.771 574.114 128.177C573.568 126.528 572.639 126.345 571.218 125.532L570.936 122.834Q570.646 116.985 570.691 111.13Z"/>
	<path fill="#A1C5A2" d="M923.921 526.702C930.835 531.518 948.062 547.784 952.018 555.281C942.871 551.748 935.314 543.268 927.991 536.884L928.035 576.898L927.896 582.942C927.076 584.275 926.098 585.622 924.994 586.737C921.854 589.909 917.366 591.568 912.94 591.475C908.836 591.389 904.471 589.918 901.695 586.778C900.043 584.909 899.055 582.438 899.36 579.923C899.639 577.631 900.959 575.624 902.849 574.326C908.738 570.282 917.329 570.847 923.985 571.993Q923.54 549.348 923.921 526.702Z"/>
	<path fill="#A1C5A2" d="M164.024 475.657C167.681 477.379 187.233 494.036 190.942 497.997C192.09 499.223 193.198 500.336 193.163 502.108L192.391 502.838C188.75 502.6 172.017 487.119 168.026 483.837L168.058 518.061C168.199 520.436 168.363 522.889 168.009 525.25C167.428 529.123 165.55 532.984 162.349 535.335C159.229 537.628 155.013 538.185 151.264 537.531C147.636 536.899 144.1 534.899 142.111 531.733C140.931 529.854 140.373 527.582 140.978 525.405C141.931 521.973 145.339 519.935 148.328 518.465C153.898 515.726 158.297 516.381 163.929 518.296Q164.18 496.977 164.024 475.657Z"/>
	<path fill="#E3594E" d="M124.478 616.422C131.894 621.206 151.2 639.276 154.953 646.758C145.986 642.094 135.986 631.642 127.964 624.912C127.933 635.981 128.619 647.068 129.124 658.123C129.491 661.675 130.063 666.034 129.383 669.553C128.781 672.666 127.364 674.934 124.686 676.661C120.549 679.328 115.427 679.948 110.707 678.682C108.075 677.977 105.587 676.532 104.229 674.094C102.989 671.867 102.924 669.211 103.77 666.836C104.917 663.615 107.581 661.149 110.711 659.874C115.754 657.82 120.305 659.198 125.016 661.257C125.089 646.318 124.558 631.366 124.478 616.422Z"/>
	<path fill="#E3594E" d="M468.545 186.246C472.867 188.787 497.769 210.631 498.816 214.209L498.257 214.614C490.199 212.657 477.992 198.868 471.992 193.134Q471.845 207.563 472.275 221.986C472.425 226.354 472.886 231.033 472.363 235.373C471.955 238.76 471.014 242.208 468.172 244.354C465.055 246.708 460.607 246.908 456.908 246.185C453.171 245.455 449.27 243.493 447.132 240.233C446.031 238.555 445.492 236.567 445.98 234.584C446.712 231.609 449.675 229.398 452.232 228.035C457.8 225.068 462.776 226.38 468.432 228.153L468.545 186.246Z"/>
	<path fill="#20171D" d="M570.504 171.827L570.483 141.95C570.487 135.62 570.255 129.13 570.936 122.834L571.218 125.532C572.639 126.345 573.568 126.528 574.114 128.177C574.31 128.771 574.372 129.57 574.462 130.176C574.686 143.919 574.474 157.66 574.498 171.403L574.436 182.472C573.116 184.241 571.892 185.922 570.055 187.2C566.344 189.78 561.971 190.897 557.499 190.082C554.158 189.473 550.892 187.792 548.968 184.91Q548.697 184.499 548.47 184.063Q548.243 183.626 548.063 183.169Q547.882 182.711 547.75 182.237Q547.618 181.763 547.536 181.278Q547.454 180.793 547.423 180.302Q547.392 179.811 547.412 179.319Q547.432 178.828 547.502 178.341Q547.573 177.854 547.694 177.377C548.297 175.047 549.649 173.244 551.733 172.032C557.453 168.705 564.53 170.163 570.504 171.827Z"/>
	<path d="M571.218 125.532C572.639 126.345 573.568 126.528 574.114 128.177C574.31 128.771 574.372 129.57 574.462 130.176C574.686 143.919 574.474 157.66 574.498 171.403C573.269 171.575 572.341 171.868 571.159 171.396C570.596 165.62 570.918 159.679 570.966 153.878L571.218 125.532Z"/>
	<path fill="#20171D" d="M637.072 145.855C637.143 147.322 637.158 148.763 637.542 150.19C638.615 151.091 639.221 151.095 640.574 151.362C640.723 156.058 640.742 160.653 640.459 165.35C639.2 166.783 637.774 168.141 636.149 169.15C632.169 171.622 627.319 172.939 622.693 171.727Q622.063 171.568 621.452 171.346Q620.841 171.125 620.256 170.842Q619.671 170.56 619.117 170.221Q618.563 169.881 618.047 169.487Q617.53 169.093 617.056 168.649Q616.582 168.205 616.155 167.715Q615.728 167.225 615.352 166.695Q614.977 166.164 614.657 165.599Q614.416 165.175 614.219 164.729Q614.023 164.282 613.873 163.818Q613.722 163.354 613.62 162.877Q613.518 162.4 613.466 161.916Q613.413 161.431 613.41 160.943Q613.406 160.455 613.453 159.97Q613.499 159.484 613.595 159.006Q613.691 158.528 613.835 158.062Q613.982 157.611 614.174 157.177Q614.367 156.743 614.603 156.331Q614.839 155.919 615.116 155.533Q615.393 155.148 615.708 154.793Q616.023 154.438 616.373 154.117Q616.723 153.796 617.104 153.512Q617.484 153.229 617.892 152.986Q618.3 152.744 618.731 152.544C624.558 149.804 631.269 151.355 636.962 153.515L637.072 145.855Z"/>
	<path d="M651.913 386.891C653.676 388.147 654.612 390.781 655.544 392.673L647.086 397.562C645.347 396.568 644.239 394.137 643.235 392.469C646.073 390.538 649.02 388.74 651.913 386.891Z"/>
	<path d="M521.334 381.827C523.918 384.165 526.061 387.066 528.265 389.759C526.715 391.04 525.065 392.218 523.461 393.43C520.86 391.497 518.898 388.901 516.833 386.43L521.334 381.827Z"/>
	<path d="M445.939 332.833L456.465 336.38L454.509 340.924C454.218 341.235 454.22 341.308 453.776 341.445C451.401 342.175 446.99 339.889 444.726 339.027C445.18 336.975 445.542 334.897 445.939 332.833Z"/>
	<path d="M494.263 357.316C495.747 357.697 497.369 358.39 498.663 359.212C500.038 360.085 501.094 361.267 501.288 362.955C501.551 365.244 500.031 366.676 498.643 368.254C496.145 365.847 493.383 363.737 490.674 361.575L494.263 357.316Z"/>
	<path d="M508.619 368.941C511.42 370.913 513.683 373.43 516.03 375.902L511.469 380.167C508.814 378.796 506.698 375.849 504.804 373.593L508.619 368.941Z"/>
	<path d="M694.356 374.144C696.939 374.114 699.5 373.65 702.05 374.198C703.171 375.046 703.505 375.166 703.607 376.678C703.721 378.365 703.268 379.214 702.205 380.41C699.825 380.58 695.565 381.179 693.55 379.601C692.568 378.831 692.569 378.457 692.457 377.317C692.98 376.022 693.422 375.22 694.356 374.144Z"/>
	<path d="M682.602 375.619C683.494 375.487 684.272 375.467 685.17 375.469C686.301 376.138 686.452 376.18 686.999 377.357C686.978 378.212 686.861 378.635 686.444 379.412C685.139 381.842 682.699 382.16 680.27 382.822C678.868 383.148 678.443 383.405 677.069 382.881C676.059 381.297 676.404 378.734 676.4 376.898L682.602 375.619Z"/>
	<path d="M478.89 347.769C482.197 348.909 485.134 350.77 488.088 352.603L484.926 357.175C482.195 357.564 478.126 354.115 475.984 352.59C477.01 351.028 477.928 349.373 478.89 347.769Z"/>
	<path d="M667.058 379.959L668.174 379.943C669.502 381.388 669.944 383.517 670.54 385.353L662.65 388.542L661.511 388.598C660.198 387.241 659.757 385.006 659.18 383.238C661.715 381.959 664.418 380.998 667.058 379.959Z"/>
	<path d="M541.531 411.921C541.91 411.945 542.362 412.15 542.726 412.268C544.55 414.664 545.536 417.581 546.656 420.352L541.851 422.776C539.459 421.473 538.12 416.923 537.069 414.448L541.531 411.921Z"/>
	<path d="M794.011 374.002L803.512 373.996L803.508 380.502L794.018 380.426L794.011 374.002Z"/>
	<path d="M760.614 373.705C763.397 373.724 767.401 372.879 769.591 374.838C770.278 376.577 769.702 378.325 769.345 380.088C767.201 380.119 763.726 380.656 761.768 380.068C760.647 379.731 760.529 379.384 759.956 378.447C759.835 376.766 760.221 375.331 760.614 373.705Z"/>
	<path d="M638.112 396.971C639.541 398.617 641.148 400.065 642.739 401.55L636.077 408.169C634.349 407.235 632.991 405.876 631.553 404.56C633.6 401.875 635.794 399.424 638.112 396.971Z"/>
	<path d="M531.932 396.703C535.017 398.257 536.841 401.861 538.611 404.686L534.732 407.236L533.529 407.668C532.993 407.372 532.449 407.094 532.001 406.665C530.523 405.248 529.041 401.945 529.391 399.856C529.66 398.244 530.769 397.691 531.932 396.703Z"/>
	<path d="M463.561 339.767C466.576 340.595 469.197 341.867 471.98 343.261C471.363 345.343 470.514 347.364 469.731 349.39L460.761 344.756L463.561 339.767Z"/>
	<path d="M777.186 373.988L786.495 373.97L786.459 380.4L777.035 380.464L777.186 373.988Z"/>
	<path d="M554.791 443.96L555.5 444.028C555.873 444.413 556.007 444.51 556.295 445.046C557.716 447.691 557.927 450.119 557.007 452.893C555.701 454.097 554.744 454.102 553.033 454.484C550.672 452.644 550.383 448.643 549.827 445.865L554.791 443.96Z"/>
	<path d="M710.752 373.682L720.045 373.572L720 380.002L710.564 380.105L710.752 373.682Z"/>
	<path d="M620.911 425.194L626.092 428.144C625.475 431.13 624.862 433.978 623.756 436.83C621.888 436.195 619.96 435.714 618.06 435.184C618.674 431.696 619.621 428.485 620.911 425.194Z"/>
	<path d="M549.515 427.549C551.544 428.947 552.806 433.829 553.693 436.126L548.62 437.655C545.946 436.175 545.205 432.237 544.254 429.473L549.515 427.549Z"/>
	<path d="M727.092 373.591L736.09 373.575L735.984 380.019L727.066 380.045L727.092 373.591Z"/>
	<path d="M743.674 373.577L752.477 373.596L752.542 379.996L743.549 380.111L743.674 373.577Z"/>
	<path d="M627.403 410.685C629.237 411.553 630.854 412.755 632.518 413.907C631.183 416.593 629.661 419.135 628.111 421.7C626.169 420.945 624.695 419.903 623.043 418.649L627.403 410.685Z"/>
	<path d="M617.236 442.298L622.595 443.964C622.511 447.003 622.131 450.042 621.839 453.067C621.106 453.118 620.191 453.254 619.471 453.134C618.26 452.933 617.385 452.512 616.769 451.399C615.471 449.055 616.742 444.816 617.236 442.298Z"/>
	<path d="M429.667 328.867L439.182 331.047L437.754 336.71Q435.637 336.562 433.562 336.115C431.894 335.767 430.346 335.186 429.513 333.563C428.751 332.076 429.311 330.39 429.667 328.867Z"/>
</svg>
